<svg width="24" height="24" viewBox="0 0 24 24" fill="none" xmlns="http://www.w3.org/2000/svg">
<g clip-path="url(#clip0_2162_60)">
<path d="M17.0379 6.65148C17.0379 6.04063 16.9075 5.43578 16.6542 4.87143C16.4009 4.30709 16.0295 3.79431 15.5615 3.36239C15.0934 2.93046 14.5377 2.58783 13.9261 2.35407C13.3145 2.12031 12.659 2 11.997 2C11.335 2 10.6795 2.12031 10.0679 2.35407C9.45631 2.58783 8.9006 2.93046 8.43251 3.36239C7.96441 3.79432 7.5931 4.30709 7.33977 4.87143C7.08644 5.43578 6.95605 6.04064 6.95605 6.65148" stroke="#404040" stroke-width="1.5" stroke-linecap="round"/>
<path d="M17.3476 7.34875H6.65245C4.20433 7.34875 2.33056 9.52816 2.69768 11.9486L3.7065 18.5998C4.00305 20.5549 5.68377 21.9999 7.66127 21.9999H16.3387C18.3162 21.9999 19.997 20.5549 20.2935 18.5998L21.3023 11.9486C21.6694 9.52816 19.7957 7.34875 17.3476 7.34875Z" stroke="#404040" stroke-width="1.5"/>
</g>
<defs>
<clipPath id="clip0_2162_60">
<rect width="24" height="24" fill="white"/>
</clipPath>
</defs>
</svg>
