<svg width="29" height="25" viewBox="0 0 29 25" fill="none" xmlns="http://www.w3.org/2000/svg">
<path d="M2.18335 10.0547C3.02002 9.32557 5.48223 7.86724 8.63768 7.86724C12.582 7.86724 16.1677 10.0547 18.3192 7.86724C20.2596 5.89433 18.6777 4.11726 17.2434 3.80474C16.1434 3.56505 14.7334 4.11726 14.7334 5.36725C14.7334 6.61724 16.1677 6.61726 16.5263 6.30476M2.54192 13.4923C3.25907 12.9714 5.48223 11.9298 8.63768 11.9298C12.582 11.9298 15.092 13.4923 17.2434 14.1173C20.112 14.9506 24.0563 15.0548 25.4906 12.2423C26.9249 9.42976 24.8741 7.84972 22.9806 8.17976C21.1878 8.49226 21.1878 10.9923 23.3392 10.6798M2.18335 17.5548C3.25907 16.6173 4.83207 15.5865 6.84481 15.3673C9.35482 15.0938 11.8293 15.6488 13.6577 17.2423C14.7334 18.1798 15.3304 20.2115 13.6577 21.3048C12.2234 22.2423 10.4305 20.9923 10.4305 20.0548C10.4305 19.3048 11.1477 18.8048 11.8648 18.8048" stroke="#A8C4FF" stroke-width="1.5" stroke-linecap="round" stroke-linejoin="round"/>
</svg>
