<svg width="29" height="25" viewBox="0 0 29 25" fill="none" xmlns="http://www.w3.org/2000/svg">
<path d="M2.15137 10.0547C2.98804 9.32557 5.45025 7.86724 8.60569 7.86724C12.55 7.86724 16.1357 10.0547 18.2872 7.86724C20.2276 5.89433 18.6458 4.11726 17.2115 3.80474C16.1114 3.56505 14.7014 4.11726 14.7014 5.36725C14.7014 6.61724 16.1357 6.61726 16.4943 6.30476M2.50994 13.4923C3.22709 12.9714 5.45025 11.9298 8.60569 11.9298C12.55 11.9298 15.06 13.4923 17.2115 14.1173C20.0801 14.9506 24.0244 15.0548 25.4587 12.2423C26.893 9.42976 24.8421 7.84972 22.9486 8.17976C21.1558 8.49226 21.1558 10.9923 23.3072 10.6798M2.15137 17.5548C3.22709 16.6173 4.80009 15.5865 6.81283 15.3673C9.32284 15.0938 11.7974 15.6488 13.6257 17.2423C14.7014 18.1798 15.2984 20.2115 13.6257 21.3048C12.1914 22.2423 10.3986 20.9923 10.3986 20.0548C10.3986 19.3048 11.1157 18.8048 11.8329 18.8048" stroke="#1FCCB7" stroke-width="1.5" stroke-linecap="round" stroke-linejoin="round"/>
</svg>
