<svg width="15" height="14" viewBox="0 0 15 14" fill="none" xmlns="http://www.w3.org/2000/svg">
<g id="Icons/Chevron">
<path id="Chevron" d="M11.751 7.47518C12.0283 7.21252 12.0283 6.78816 11.751 6.52482L5.16866 0.285008C4.76829 -0.0950026 4.11689 -0.0950026 3.7158 0.285008C3.31543 0.665018 3.31543 1.28177 3.7158 1.66178L9.34661 7.00034L3.7158 12.3375C3.31543 12.7182 3.31543 13.335 3.7158 13.715C4.11689 14.095 4.76829 14.095 5.16866 13.715L11.751 7.47518Z" fill="#404040"/>
<mask id="mask0_2363_4894" style="mask-type:luminance" maskUnits="userSpaceOnUse" x="3" y="0" width="9" height="14">
<path id="Chevron_2" d="M11.751 7.47518C12.0283 7.21252 12.0283 6.78816 11.751 6.52482L5.16866 0.285008C4.76829 -0.0950026 4.11689 -0.0950026 3.7158 0.285008C3.31543 0.665018 3.31543 1.28177 3.7158 1.66178L9.34661 7.00034L3.7158 12.3375C3.31543 12.7182 3.31543 13.335 3.7158 13.715C4.11689 14.095 4.76829 14.095 5.16866 13.715L11.751 7.47518Z" fill="white"/>
</mask>
<g mask="url(#mask0_2363_4894)">
</g>
</g>
</svg>
