<svg width="230" height="51" viewBox="0 0 230 51" fill="none" xmlns="http://www.w3.org/2000/svg">
<g id="choice" clip-path="url(#clip0_2333_2463)">
<g id="Layer 1">
<g id="Group">
<path id="Vector" d="M36.2905 15.9088C33.3968 12.0862 27.6061 10.8559 23.6321 10.8559C15.418 10.8559 9.28993 16.8628 9.28993 25.9457C9.28993 36.9365 15.2818 42.4697 23.9662 42.4697C28.5436 42.4697 33.6628 40.6275 36.1543 37.9629H36.4917V41.4434C36.4917 47.8615 29.1535 50.592 22.7562 50.592C10.5065 50.592 0.0020752 41.3052 0.0020752 27.3109C0.0020752 13.3166 9.4943 2.73035 23.5672 2.73035C31.1097 2.73035 36.6279 5.872 36.6279 12.2902V15.9088H36.2905Z" fill="#F4F4F4"/>
<path id="Vector_2" d="M71.1684 50.1808C67.3987 50.1808 65.0403 47.9965 65.0403 44.0357V29.015C65.0403 23.008 61.8091 20.6164 57.8351 20.6164C55.0063 20.6164 51.3047 22.8008 51.3047 29.2881V50.1808H48.3429C44.0996 50.1808 42.1499 47.7925 42.1499 44.0357V1.02307H44.9788C49.2869 1.02307 51.3761 3.48047 51.3761 6.89516V17.409C52.7224 15.2246 55.8205 12.4942 59.2528 12.4942C68.612 12.4942 74.1335 18.1623 74.1335 28.6071V50.1808H71.1716H71.1684Z" fill="#F4F4F4"/>
<path id="Vector_3" d="M99.1814 12.494C110.088 12.494 116.349 21.3696 116.349 31.1334C116.349 42.1933 110.088 50.9998 98.3736 50.9998C87.4669 50.9998 81.2058 42.1933 81.2058 32.4295C81.2058 21.3696 87.4669 12.494 99.1814 12.494ZM98.3736 20.6853C93.1895 20.6853 90.565 25.054 90.565 31.1301C90.565 38.4365 93.1895 42.8052 99.1846 42.8052C104.437 42.8052 106.993 38.4365 106.993 32.4262C106.993 25.054 104.301 20.682 98.3736 20.682V20.6853Z" fill="#F4F4F4"/>
<path id="Vector_4" d="M129.006 10.7177C126.113 10.7177 123.754 8.26027 123.754 5.32258C123.754 2.38489 126.109 -0.00341797 129.006 -0.00341797C131.903 -0.00341797 134.327 2.38489 134.327 5.32258C134.327 8.26027 131.903 10.7177 129.006 10.7177ZM135.404 50.5229C128.403 50.5229 124.565 46.4963 124.565 39.0517V14.1324H127.125C131.164 14.1324 133.587 16.3167 133.587 20.9585V38.1635C133.587 41.8513 135.134 43.0125 139.108 43.0125H140.792V44.9929C140.792 48.9537 139.245 50.5229 135.407 50.5229H135.404Z" fill="#F4F4F4"/>
<path id="Vector_5" d="M173.309 25.1923C172.095 23.077 168.663 21.3696 163.479 21.3696C158.295 21.3696 153.581 25.6725 153.581 31.1334C153.581 37.8246 157.487 42.3973 163.612 42.3973C168.796 42.3973 171.894 40.69 173.172 38.9826H173.51V43.2164C173.51 47.6542 169.267 50.865 162.736 50.865C152.77 50.865 144.154 43.0125 144.154 32.4986C144.154 21.9848 151.359 12.9711 163.745 12.9711C169.536 12.9711 173.643 16.5206 173.643 20.8893V25.1923H173.306H173.309Z" fill="#F4F4F4"/>
<path id="Vector_6" d="M193.779 35.7062H187.855C188.53 40.3479 192.702 43.2856 198.022 43.2856C201.792 43.2856 206.236 42.5356 209.13 39.8051H209.467V42.6737C209.467 47.3846 206.304 51.0032 196.338 51.0032C187.317 51.0032 178.496 43.7659 178.496 32.502C178.496 20.2117 185.902 12.4974 196.27 12.4974C203.81 12.4974 210.814 17.9583 210.814 26.7681C210.814 33.5284 205.762 35.7127 193.779 35.7127V35.7062ZM195.462 20.1394C191.086 20.1394 188.056 23.758 187.855 27.9919L187.787 29.2222H191.826C200.377 29.2222 202.33 28.2649 202.33 25.6726C202.33 21.9849 199.638 20.1427 195.462 20.1427V20.1394Z" fill="#F4F4F4"/>
<path id="Vector_7" d="M224.212 50.1808C221.049 50.1808 218.421 47.5195 218.421 44.3088C218.421 41.098 221.045 38.4367 224.212 38.4367C227.378 38.4367 230.002 41.098 230.002 44.3088C230.002 47.5195 227.378 50.1808 224.212 50.1808ZM227.712 34.137H224.951C221.72 34.137 219.767 32.0218 219.699 28.4031L219.024 3.41467H223.131C226.363 3.41467 228.452 5.52994 228.384 9.14859L227.709 34.137H227.712Z" fill="#F4F4F4"/>
</g>
</g>
</g>
<defs>
<clipPath id="clip0_2333_2463">
<rect width="230" height="51" fill="white"/>
</clipPath>
</defs>
</svg>
