<svg width="40" height="40" viewBox="0 0 40 40" fill="none" xmlns="http://www.w3.org/2000/svg">
<rect width="40" height="40" rx="20" fill="#EDF2FF"/>
<path d="M24 15.9996C23.7562 16.731 23.2546 17.2924 22.5446 17.6072C20.2642 18.6181 18.6185 20.2638 17.6075 22.5442C17.2928 23.2542 16.7314 23.7558 16 23.9996" stroke="#4979FB" stroke-width="1.5" stroke-linejoin="round"/>
<path d="M11.2 28.7996L10 29.9996M28.8 11.1996L30 9.99963" stroke="#4979FB" stroke-width="1.5" stroke-linecap="round" stroke-linejoin="round"/>
<path d="M25.7881 10.4208L24.2759 11.8739L28.1165 15.7504L29.5941 14.3157C30.0376 13.7933 30.1734 13.3998 29.6213 12.675L28.5155 11.5121L27.3945 10.4063C26.6779 9.76351 26.1135 10.1094 25.7881 10.4208Z" stroke="#4979FB" stroke-width="1.5" stroke-linecap="round" stroke-linejoin="round"/>
<path d="M22.0115 11.7564C23.1221 10.5826 23.8827 11.418 24.2733 11.8832L28.081 15.7062C28.5549 16.0861 29.4219 16.8151 28.276 17.9501C28.0911 18.1333 27.9098 18.3251 27.7089 18.4904C26.967 19.1007 26.255 18.5947 25.8777 18.1299L22.002 14.2542C21.5939 13.8877 20.8888 13.2235 21.4843 12.3357C21.6448 12.1308 21.8326 11.9455 22.0115 11.7564Z" stroke="#4979FB" stroke-width="1.5" stroke-linecap="round" stroke-linejoin="round"/>
<path d="M12.5874 29.6195L11.4461 28.4914L10.3621 27.3493C9.71891 26.706 10.09 26.0628 10.4076 25.7435L11.8897 24.2596L15.7463 28.1329L14.2283 29.624C13.6975 30.0572 13.3335 30.19 12.6195 29.624M14.2233 21.9237C13.8327 21.4585 13.0721 20.623 11.9615 21.7969C11.7826 21.9859 11.5948 22.1713 11.4343 22.3762C10.8388 23.264 11.5439 23.9281 11.9519 24.2947L15.8277 28.1704C16.205 28.6352 16.917 29.1412 17.6588 28.5309C17.8598 28.3655 18.0411 28.1738 18.226 27.9906C19.3719 26.8555 18.5049 26.1266 18.031 25.7466L14.2233 21.9237Z" stroke="#4979FB" stroke-width="1.5" stroke-linecap="round" stroke-linejoin="round"/>
</svg>
