<svg width="24" height="24" viewBox="0 0 24 24" fill="none" xmlns="http://www.w3.org/2000/svg">
<path d="M19 2H5C3.67441 2.00144 2.40356 2.4808 1.46622 3.33293C0.528882 4.18505 0.00158786 5.34037 0 6.54545L0 17.4545C0.00158786 18.6596 0.528882 19.8149 1.46622 20.6671C2.40356 21.5192 3.67441 21.9986 5 22H19C20.3256 21.9986 21.5964 21.5192 22.5338 20.6671C23.4711 19.8149 23.9984 18.6596 24 17.4545V6.54545C23.9984 5.34037 23.4711 4.18505 22.5338 3.33293C21.5964 2.4808 20.3256 2.00144 19 2ZM5 3.81818H19C19.5988 3.81925 20.1835 3.9832 20.679 4.28891C21.1744 4.59463 21.5579 5.02813 21.78 5.53364L14.122 12.4964C13.5584 13.0066 12.7954 13.2932 12 13.2932C11.2046 13.2932 10.4416 13.0066 9.878 12.4964L2.22 5.53364C2.44215 5.02813 2.82561 4.59463 3.32105 4.28891C3.81648 3.9832 4.40121 3.81925 5 3.81818ZM19 20.1818H5C4.20435 20.1818 3.44129 19.8945 2.87868 19.383C2.31607 18.8716 2 18.1779 2 17.4545V7.90909L8.464 13.7818C9.40263 14.633 10.6743 15.1109 12 15.1109C13.3257 15.1109 14.5974 14.633 15.536 13.7818L22 7.90909V17.4545C22 18.1779 21.6839 18.8716 21.1213 19.383C20.5587 19.8945 19.7956 20.1818 19 20.1818Z" fill="#757575"/>
</svg>
