<svg width="148" height="56" viewBox="0 0 148 56" fill="none" xmlns="http://www.w3.org/2000/svg">
<g id="feel" clip-path="url(#clip0_2333_2732)">
<g id="Layer 1">
<g id="Group">
<path id="Vector" d="M27.8338 9.37824H10.6927V22.9456H30.7811V26.224C30.7811 29.7771 27.9222 31.6867 25.438 31.6867H11.1517V55.0894H6.54536C2.49062 55.0894 0.00219727 52.9967 0.00219727 48.7155V8.65016C0.00219727 1.91435 2.76851 0.183594 9.31167 0.183594H34.1917V3.64511C34.1917 6.19548 32.2548 9.3824 27.8338 9.3824V9.37824Z" fill="#F4F4F4"/>
<path id="Vector_2" d="M53.9142 38.8843H47.0931C47.9226 44.0724 52.7142 47.3509 58.7984 47.3509C63.131 47.3509 68.2889 46.5313 71.6068 43.4359H71.9774V46.7143C71.9774 51.9981 68.3816 56.0005 56.8658 56.0005C46.5458 56.0005 36.4068 47.8959 36.4068 35.2397C36.4068 21.4893 44.8868 12.8397 56.7731 12.8397C65.4342 12.8397 73.5437 19.0305 73.5437 28.8659C73.5437 36.4255 67.7374 38.8843 53.9142 38.8843ZM55.851 21.402C50.8742 21.402 47.371 25.5 47.0974 30.2347V31.5993H51.7037C61.5647 31.5993 63.7753 30.5051 63.7753 27.5928C63.7753 23.4947 60.6426 21.402 55.851 21.402Z" fill="#F4F4F4"/>
<path id="Vector_3" d="M98.2382 38.8843H91.4172C92.2466 44.0724 97.0382 47.3509 103.122 47.3509C107.455 47.3509 112.613 46.5313 115.931 43.4359H116.301V46.7143C116.301 51.9981 112.706 56.0005 101.19 56.0005C90.8698 56.0005 80.7308 47.8959 80.7308 35.2397C80.7308 21.4893 89.2108 12.8397 101.097 12.8397C109.758 12.8397 117.868 19.0305 117.868 28.8659C117.868 36.4255 112.061 38.8843 98.2382 38.8843ZM100.175 21.402C95.1982 21.402 91.695 25.5 91.4214 30.2347V31.5993H96.0277C105.889 31.5993 108.099 30.5051 108.099 27.5928C108.099 23.4947 104.967 21.402 100.175 21.402Z" fill="#F4F4F4"/>
<path id="Vector_4" d="M141 55.4556C132.432 55.4556 127.821 50.9956 127.821 42.6164V0.000610352H130.769C135.931 0.000610352 138.141 3.00447 138.141 6.91948V41.6137C138.141 45.8033 140.352 47.0764 145.236 47.0764H148.002V49.2606C148.002 53.7248 145.607 55.4514 141 55.4514V55.4556Z" fill="#F4F4F4"/>
</g>
</g>
</g>
<defs>
<clipPath id="clip0_2333_2732">
<rect width="148" height="56" fill="white"/>
</clipPath>
</defs>
</svg>
