<svg width="38" height="38" viewBox="0 0 38 38" fill="none" xmlns="http://www.w3.org/2000/svg">
<path d="M30.046 22.0962C34.0823 18.0599 34.1934 11.6043 30.2946 7.70547C26.3958 3.80666 19.9402 3.91773 15.9038 7.95408C12.3433 11.5146 11.8415 16.9555 14.4485 20.8654L11.8573 23.4566L10.3459 21.9452C9.98634 21.6042 9.50291 21.4219 8.99866 21.4371C8.49441 21.4523 8.00922 21.6637 7.64655 22.0264C7.28388 22.3891 7.07242 22.8743 7.05724 23.3785C7.04207 23.8828 7.22438 24.3662 7.56532 24.7257L9.07676 26.2372L7.71758 27.5963C7.36402 27.9679 7.16489 28.4579 7.16264 28.9619C7.1604 29.466 7.35522 29.9441 7.70558 30.2945C8.05593 30.6448 8.53409 30.8396 9.03812 30.8374C9.54215 30.8352 10.0322 30.636 10.4037 30.2825L11.7629 28.9233L13.2743 30.4347C13.6339 30.7757 14.1173 30.958 14.6215 30.9428C15.1258 30.9276 15.611 30.7162 15.9736 30.3535C16.3363 29.9908 16.5478 29.5056 16.563 29.0014C16.5781 28.4971 16.3958 28.0137 16.0549 27.6542L14.5434 26.1427L17.1346 23.5516C21.0445 26.1585 26.4859 25.6563 30.046 22.0962ZM18.59 10.6402C21.0933 8.13687 25.0966 8.06771 27.5145 10.4856C29.9323 12.9034 29.8632 16.9068 27.3603 19.4096C24.857 21.913 20.8536 21.9821 18.4358 19.5643C16.0179 17.1464 16.0871 13.1431 18.5904 10.6397L18.59 10.6402Z" fill="#FE7AB6"/>
</svg>
