<svg width="24" height="24" viewBox="0 0 24 24" fill="none" xmlns="http://www.w3.org/2000/svg">
<path d="M8.98398 21.6507V18.2872C8.98398 17.4286 9.65492 16.7325 10.4826 16.7325H13.508C13.9055 16.7325 14.2866 16.8963 14.5677 17.1879C14.8487 17.4794 15.0066 17.8749 15.0066 18.2872V21.6507C15.0041 22.0076 15.139 22.3509 15.3814 22.6042C15.6239 22.8575 15.9537 23 16.2978 23H18.3619C19.3259 23.0026 20.2513 22.6071 20.9339 21.9009C21.6164 21.1946 22 20.2357 22 19.2356V9.65354C22 8.8457 21.6548 8.07942 21.0575 7.56113L14.0358 1.74346C12.8144 0.723418 11.0643 0.756352 9.87936 1.82168L3.01791 7.56113C2.39236 8.06414 2.01848 8.8327 2 9.65354V19.2258C2 21.3102 3.62882 23 5.63808 23H7.65504C8.36971 23 8.95052 22.4018 8.9557 21.6604L8.98398 21.6507Z" fill="#54B6AB"/>
</svg>
