<svg width="20" height="22" viewBox="0 0 20 22" fill="none" xmlns="http://www.w3.org/2000/svg">
    <path d="M13.7566 20.6559H13.7566V20.6507V17.2872C13.7566 16.6846 13.5261 16.1015 13.1076 15.6674C12.6883 15.2323 12.1134 14.9825 11.508 14.9825H8.48256C7.21498 14.9825 6.23398 16.0405 6.23398 17.2872V20.1164L6.20942 20.1249L6.20572 20.6552C6.20324 21.0103 5.93211 21.25 5.65504 21.25H3.63808C2.06876 21.25 0.75 19.9222 0.75 18.2258V8.66263C0.765808 8.06017 1.0412 7.5048 1.48789 7.14561L1.49355 7.14106L1.49911 7.13641L8.36056 1.39695L8.37083 1.38836L8.38078 1.37942C9.28893 0.562962 10.6205 0.538654 11.5551 1.31912L11.5573 1.32098L18.5719 7.13277C18.9975 7.50513 19.25 8.06047 19.25 8.65354V18.2356C19.25 19.0451 18.9392 19.8161 18.3946 20.3797C17.8508 20.9423 17.1196 21.252 16.3639 21.25H16.3619H14.2978C14.1627 21.25 14.0273 21.1943 13.9233 21.0856C13.8184 20.976 13.7554 20.8218 13.7566 20.6559Z" stroke="#404040" stroke-width="1.5"/>
</svg>