<svg width="240" height="56" viewBox="0 0 240 56" fill="none" xmlns="http://www.w3.org/2000/svg">
<g id="hoodie" clip-path="url(#clip0_2333_2491)">
<g id="Layer 1">
<g id="Group">
<path id="Vector" d="M31.3819 55.1363C27.307 55.1363 24.7054 52.7903 24.7054 48.5368V32.5595C24.7054 26.1328 21.2345 23.5275 16.9871 23.5275C13.8678 23.5275 9.87924 25.8736 9.87924 32.8187V55.1363H6.67375C2.08121 55.1363 -0.00268555 52.6175 -0.00268555 48.5368V2.60559H3.03025C7.7157 2.60559 9.96552 5.21086 9.96552 8.85957V20.1446C11.4388 17.7986 14.7306 14.8477 18.4604 14.8477C28.6078 14.8477 34.5874 20.9289 34.5874 32.1275V55.1363H31.3819Z" fill="white"/>
<path id="Vector_2" d="M63.118 14.8478C74.9112 14.8478 81.6739 24.3982 81.6739 34.8193C81.6739 46.6294 74.9112 56.007 62.2552 56.007C50.4619 56.007 43.6992 46.6294 43.6992 36.2083C43.6992 24.3982 50.4619 14.8478 63.118 14.8478ZM62.2486 23.614C56.6141 23.614 53.7537 28.3061 53.7537 34.8127C53.7537 42.6285 56.6141 47.2276 63.118 47.2276C68.7525 47.2276 71.5266 42.6285 71.5266 36.2017C71.5266 28.2995 68.6662 23.614 62.2486 23.614Z" fill="white"/>
<path id="Vector_3" d="M108.034 14.8478C119.828 14.8478 126.59 24.3982 126.59 34.8193C126.59 46.6294 119.828 56.007 107.172 56.007C95.3783 56.007 88.6156 46.6294 88.6156 36.2083C88.6156 24.3982 95.3783 14.8478 108.034 14.8478ZM107.165 23.614C101.53 23.614 98.6701 28.3061 98.6701 34.8127C98.6701 42.6285 101.53 47.2276 108.034 47.2276C113.669 47.2276 116.443 42.6285 116.443 36.2017C116.443 28.2995 113.583 23.614 107.165 23.614Z" fill="white"/>
<path id="Vector_4" d="M151.73 56.0004C141.41 56.0004 133.526 46.9683 133.526 36.2016C133.526 23.2617 139.771 14.8411 151.212 14.8411C155.114 14.8411 159.448 17.6192 160.921 21.0951V0.000366211H163.954C168.547 0.000366211 170.631 2.69203 170.631 6.68634V36.9859C170.631 48.4438 165.255 56.0004 151.73 56.0004ZM151.298 23.0955C146.268 23.0955 143.062 27.9605 143.062 34.2942C143.062 42.4556 147.31 47.7526 152.944 47.7526C158.579 47.7526 160.835 43.6719 160.835 36.5539C160.835 26.6579 156.501 23.0955 151.298 23.0955Z" fill="white"/>
<path id="Vector_5" d="M187.979 12.9337C184.86 12.9337 182.345 10.3285 182.345 7.20479C182.345 4.08113 184.86 1.56226 187.979 1.56226C191.099 1.56226 193.786 4.08113 193.786 7.20479C193.786 10.3285 191.099 12.9337 187.979 12.9337ZM194.915 55.4754C187.369 55.4754 183.208 51.2219 183.208 43.2333V16.5824H185.982C190.315 16.5824 192.917 18.9285 192.917 23.8732V42.2762C192.917 46.2705 194.649 47.4868 198.897 47.4868H200.715V49.5736C200.715 53.8271 199.069 55.4754 194.908 55.4754H194.915Z" fill="white"/>
<path id="Vector_6" d="M221.535 39.6776H215.117C215.9 44.6289 220.406 47.7526 226.127 47.7526C230.202 47.7526 235.06 46.9683 238.179 44.0175H238.524V47.1411C238.524 52.1789 235.14 56.0004 224.302 56.0004C214.593 56.0004 205.056 48.271 205.056 36.2017C205.056 23.0889 213.033 14.8411 224.216 14.8411C232.365 14.8411 239.998 20.7429 239.998 30.1205C239.998 37.3249 234.536 39.6709 221.528 39.6709L221.535 39.6776ZM223.353 23.0092C218.667 23.0092 215.376 26.9171 215.117 31.4298V32.7324H219.451C228.729 32.7324 230.806 31.689 230.806 28.9109C230.806 25.003 227.859 23.0092 223.353 23.0092Z" fill="white"/>
</g>
</g>
</g>
<defs>
<clipPath id="clip0_2333_2491">
<rect width="240" height="56" fill="white"/>
</clipPath>
</defs>
</svg>
