<svg width="21" height="21" viewBox="0 0 21 21" fill="none" xmlns="http://www.w3.org/2000/svg">
<g id="Icon">
<path id="Icon_2" fill-rule="evenodd" clip-rule="evenodd" d="M4.19971 5.70056C3.09514 5.70056 2.19971 6.59599 2.19971 7.70056V15.7006C2.19971 16.8051 3.09514 17.7006 4.19971 17.7006H16.1997C17.3043 17.7006 18.1997 16.8051 18.1997 15.7006V7.70056C18.1997 6.59599 17.3043 5.70056 16.1997 5.70056H14.6139C14.3487 5.70056 14.0944 5.5952 13.9068 5.40767L12.7855 4.28635C12.4104 3.91128 11.9017 3.70056 11.3713 3.70056H9.02813C8.4977 3.70056 7.98899 3.91127 7.61392 4.28635L6.4926 5.40767C6.30506 5.5952 6.05071 5.70056 5.78549 5.70056H4.19971ZM10.1997 14.7006C11.8566 14.7006 13.1997 13.3574 13.1997 11.7006C13.1997 10.0437 11.8566 8.70056 10.1997 8.70056C8.54285 8.70056 7.19971 10.0437 7.19971 11.7006C7.19971 13.3574 8.54285 14.7006 10.1997 14.7006Z" fill="#000043"/>
</g>
</svg>
