<svg width="134" height="56" viewBox="0 0 134 56" fill="none" xmlns="http://www.w3.org/2000/svg">
<g id="live" clip-path="url(#clip0_2333_2707)">
<g id="Layer 1">
<g id="Group">
<path id="Vector" d="M22.937 55.5536H18.9707C6.72557 55.5536 -0.00170898 48.4972 -0.00170898 35.6371V1.24921H4.22524C8.45219 1.24921 10.6919 3.75037 10.6919 9.10701V34.9201C10.6919 43.0478 12.504 46.0846 20.2616 46.0846H22.933C27.8481 46.0846 31.8999 44.9247 33.7976 44.1191V47.7802C33.7976 52.5126 31.5538 55.5494 22.933 55.5494L22.937 55.5536Z" fill="#F4F4F4"/>
<path id="Vector_2" d="M45.872 11.701C42.769 11.701 40.2686 9.02265 40.2686 5.80867C40.2686 2.59469 42.769 0.000732422 45.872 0.000732422C48.975 0.000732422 51.6505 2.59047 51.6505 5.80445C51.6505 9.01843 48.9791 11.6967 45.872 11.6967V11.701ZM52.7703 55.4651C45.2693 55.4651 41.1279 51.087 41.1279 42.8707V15.4506H43.8888C48.2013 15.4506 50.7872 17.8632 50.7872 22.9541V41.8879C50.7872 45.9961 52.5097 47.2488 56.7366 47.2488H58.5488V49.3914C58.5488 53.7695 56.9117 55.4651 52.7703 55.4651Z" fill="#F4F4F4"/>
<path id="Vector_3" d="M81.2269 55.5536H79.3293C76.5683 55.5536 74.8458 54.4822 72.9481 51.534C67.6013 43.2291 61.0492 25.4552 60.1859 14.5606H65.3576C68.6357 14.5606 70.7044 17.2389 71.136 19.3815C72.431 26.885 74.4997 34.7428 78.637 43.0477C82.3468 35.4556 85.7064 24.7382 87.1724 14.5563H91.3097C94.5878 14.5563 95.8787 16.0748 95.8787 19.3773C95.8787 22.0556 89.7582 43.3134 81.2188 55.5493L81.2269 55.5536Z" fill="#F4F4F4"/>
<path id="Vector_4" d="M115.633 39.2096H109.252C110.03 44.3005 114.513 47.5145 120.202 47.5145C124.254 47.5145 129.083 46.7089 132.186 43.6721H132.533V46.8861C132.533 52.0655 129.169 55.9966 118.39 55.9966C108.731 55.9966 99.2464 48.0502 99.2464 35.6329C99.2464 22.1485 107.179 13.6623 118.304 13.6623C126.408 13.6623 133.999 19.736 133.999 29.3821C133.999 36.797 128.566 39.2054 115.633 39.2054V39.2096ZM117.445 22.06C112.791 22.06 109.512 26.0796 109.252 30.7234V32.0646H113.564C122.792 32.0646 124.861 30.9933 124.861 28.1336C124.861 24.114 121.929 22.06 117.445 22.06Z" fill="#F4F4F4"/>
</g>
</g>
</g>
<defs>
<clipPath id="clip0_2333_2707">
<rect width="134" height="56" fill="white"/>
</clipPath>
</defs>
</svg>
