<svg width="92" height="66" viewBox="0 0 92 66" fill="none" xmlns="http://www.w3.org/2000/svg">
<path d="M90.7531 17.0022C83.6727 12.9492 77.2775 7.40028 72.2582 0.954912C71.852 0.433067 71.2676 0.100245 70.6125 0.0190696C69.9587 -0.0621063 69.3106 0.11764 68.7909 0.524679C67.7193 1.36427 67.5283 2.92169 68.365 3.99785C72.1078 8.80462 76.5252 13.122 81.4947 16.8306L81.5398 16.8631C81.8442 17.102 82.0317 17.4452 82.0675 17.8291C82.1208 18.4402 81.7771 19.0073 81.2123 19.2404L81.173 19.2578C74.9837 21.7881 69.3198 25.4005 64.3399 29.9962C59.3207 34.6278 55.2609 40.0156 52.2727 46.0087C51.6663 47.2275 52.1616 48.7165 53.3779 49.3276C53.7216 49.4993 54.0978 49.5886 54.4797 49.5886C54.5537 49.5886 54.629 49.5851 54.703 49.5781C55.5618 49.5004 56.3059 48.9936 56.6936 48.2202C63.3041 34.9595 75.795 24.9923 90.1074 21.5562C91.0992 21.3161 91.8317 20.509 91.9741 19.5001C92.1199 18.4901 91.6408 17.5078 90.7554 16.9999L90.7531 17.0022Z" fill="#1FCCB7"/>
<path d="M64.9937 16.2008C62.3979 13.6009 59.7141 10.9128 56.447 8.82775C53.7459 7.1045 49.5229 5.14004 44.7339 5.55752L44.69 5.56216C39.2958 6.05153 35.1075 9.36583 32.5429 12.0597C30.138 14.5866 28.1775 17.5507 26.6013 19.9326C24.5031 23.1031 22.8215 25.4932 21.148 27.6803C20.037 29.1333 18.8635 30.598 17.6611 32.0336C16.5119 33.4043 15.3002 34.7924 14.0595 36.1585C11.8803 38.5567 9.7127 40.8563 7.16894 42.6271C5.4272 43.8401 3.64263 44.6831 1.86385 45.1342C0.543366 45.4694 -0.258647 46.8181 0.0758142 48.1401C0.35704 49.2522 1.33959 50.0083 2.46218 50.0083C2.5374 50.0083 2.61379 50.0048 2.69017 49.9978C2.81979 49.9862 2.94941 49.9642 3.07555 49.9317C5.43067 49.3345 7.7557 48.2444 9.98698 46.6917C12.9508 44.6286 15.4286 42.0032 17.7108 39.4914C18.9966 38.0766 20.2523 36.6386 21.4432 35.2169C22.6942 33.7232 23.914 32.2006 25.069 30.6919C26.8142 28.4097 28.5571 25.935 30.7178 22.6682C32.5857 19.8456 34.1689 17.524 36.1166 15.4761C38.0968 13.3956 41.2678 10.8432 45.1355 10.4919L45.0904 9.99784L45.1656 10.4895C48.5739 10.1915 51.738 11.6921 53.7933 13.0037C56.6033 14.7965 59.0926 17.2898 61.5021 19.7018C62.465 20.6667 64.032 20.6655 64.9949 19.7018C65.4613 19.2345 65.7182 18.6129 65.7182 17.9519C65.7182 17.2909 65.4613 16.6693 64.9937 16.202V16.2008Z" fill="#1FCCB7"/>
<path d="M59.7685 61.7753L48.9523 50.9755C48.6815 50.7041 48.398 50.4293 48.1029 50.1428C46.5058 48.5924 44.6958 46.8366 44.5974 45.2259C44.5164 43.883 45.7836 42.1435 46.9016 40.607L46.9166 40.5861C47.118 40.3089 47.3171 40.0364 47.5069 39.7685C49.7289 36.6305 52.1974 33.6293 54.8453 30.8485C55.7851 29.8616 55.748 28.2914 54.7632 27.3498C54.2864 26.8929 53.6568 26.6482 53.0006 26.6668C52.3409 26.6818 51.7276 26.9543 51.2716 27.4321C48.4582 30.3869 45.8357 33.5748 43.4783 36.9042C43.2989 37.1582 43.1103 37.4168 42.9124 37.6881C41.3824 39.7883 39.4775 42.4033 39.6673 45.5239C39.8814 49.0527 42.5351 51.6272 44.668 53.6972L44.6934 53.7215C44.9585 53.9778 45.2177 54.2306 45.4665 54.4788L56.2816 65.2786C56.7468 65.7437 57.3717 66 58.0233 66C58.0985 66 58.1726 65.9965 58.2478 65.9895C58.823 65.9373 59.3658 65.6822 59.7731 65.2717C60.2384 64.8032 60.4953 64.1816 60.493 63.5206C60.4918 62.8596 60.2337 62.2392 59.7662 61.7718L59.7685 61.7753Z" fill="#1FCCB7"/>
</svg>
