<svg width="38" height="38" viewBox="0 0 38 38" fill="none" xmlns="http://www.w3.org/2000/svg">
<path d="M23.5338 17.152L27.1273 13.5585L27.1614 14.6512C27.1756 15.1301 27.3686 15.5802 27.7024 15.9131C27.9736 16.1841 28.3234 16.3638 28.7058 16.4286C29.0881 16.4934 29.4852 16.4402 29.8447 16.276C30.2042 16.1118 30.5093 15.8444 30.7201 15.5088C30.9308 15.1733 31.0372 14.7853 31.0252 14.3959L30.8544 8.95029L30.8473 8.94862C30.8348 8.47086 30.6439 8.02121 30.3121 7.68792C29.9648 7.3406 29.5111 7.16775 29.0483 7.15329L29.0493 7.14608L23.6028 6.97528C23.2134 6.96337 22.8254 7.06976 22.4899 7.28047C22.1543 7.49118 21.8869 7.79635 21.7227 8.15586C21.5585 8.51537 21.5053 8.9124 21.5701 9.29475C21.6349 9.6771 21.8146 10.0269 22.0855 10.2981C22.4072 10.6198 22.8501 10.8239 23.3479 10.8386L24.4411 10.8732L20.8476 14.4667C16.9381 11.8601 11.4975 12.3622 7.93742 15.9223C3.90107 19.9586 3.7896 26.4138 7.68793 30.3121C11.5862 34.2104 18.0414 34.099 22.0778 30.0626C25.6384 26.5021 26.14 21.0619 23.5338 17.152ZM10.468 27.532C8.05091 25.1149 8.12033 21.1109 10.6232 18.608C13.1261 16.1052 17.1292 16.0358 19.5467 18.4533C21.9643 20.8709 21.8949 24.874 19.392 27.3768C16.8891 29.8797 12.8856 29.9496 10.468 27.532Z" fill="#50C8EF"/>
</svg>
