<svg width="24" height="22" viewBox="0 0 24 22" fill="none" xmlns="http://www.w3.org/2000/svg">
<g id="Group">
<path id="Vector" d="M8.85862 17.9775C8.64268 18.2239 8.51442 18.6883 8.51442 19.0488C8.51442 20.1264 9.29478 20.9999 10.2573 20.9999C11.2199 20.9999 12.0003 20.1263 12.0003 19.0488V6.84503C12.0003 5.76073 11.215 4.88171 10.2465 4.88171C9.90672 4.88172 9.5743 4.99218 9.28959 5.19968C9.00487 5.40717 8.78012 5.70278 8.64264 6.05057L8.48438 6.45093" stroke="#0005B0" stroke-width="0.867209" stroke-miterlimit="10" stroke-linecap="round" stroke-linejoin="round"/>
<path id="Vector_2" d="M8.64213 19.8493C8.32087 20.0288 7.95847 20.1298 7.57499 20.1298C6.25371 20.1298 5.18262 18.9307 5.18262 17.4516C5.18262 16.948 5.3068 16.4769 5.52274 16.0745M6.16746 9.59088C6.04795 9.29657 5.9863 8.97695 5.98669 8.65366C5.98669 7.40248 6.89275 6.38818 8.01041 6.38818C8.70448 6.38818 9.3169 6.77932 9.68148 7.3754" stroke="#0005B0" stroke-width="0.867209" stroke-miterlimit="10" stroke-linecap="round" stroke-linejoin="round"/>
<path id="Vector_3" d="M6.69083 9.5645C5.02514 9.5645 3.6748 11.0761 3.6748 12.9408C3.6748 14.8055 5.02514 16.3171 6.69083 16.3171M15.1416 17.9775C15.3576 18.2239 15.4858 18.6883 15.4858 19.0488C15.4858 20.1264 14.7055 20.9999 13.7429 20.9999C12.7803 20.9999 12 20.1263 12 19.0488V6.84503C12 5.76073 12.7852 4.88171 13.7538 4.88171C14.0935 4.88172 14.426 4.99218 14.7107 5.19968C14.9954 5.40717 15.2201 5.70278 15.3576 6.05057L15.5159 6.45093" stroke="#0005B0" stroke-width="0.867209" stroke-miterlimit="10" stroke-linecap="round" stroke-linejoin="round"/>
<path id="Vector_4" d="M15.3573 19.8493C15.6785 20.0288 16.0409 20.1298 16.4244 20.1298C17.7457 20.1298 18.8168 18.9307 18.8168 17.4516C18.8168 16.948 18.6926 16.4769 18.4767 16.0745M17.8319 9.59088C17.9514 9.29656 18.0131 8.97695 18.0127 8.65366C18.0127 7.40248 17.1066 6.38818 15.9889 6.38818C15.2949 6.38818 14.6824 6.77932 14.3179 7.3754" stroke="#0005B0" stroke-width="0.867209" stroke-miterlimit="10" stroke-linecap="round" stroke-linejoin="round"/>
<path id="Vector_5" d="M19.6951 15.0069C19.1434 15.8042 18.2799 16.3175 17.3093 16.3175M17.3093 9.56479C18.2793 9.56479 19.1424 10.0774 19.6941 10.8738M17.2763 13.5626C16.663 13.5626 16.1659 13.0061 16.1659 12.3196M9.94939 16.2732C9.74984 15.9426 9.41194 15.7252 9.02867 15.7252M14.062 16.2732C14.2615 15.9426 14.5994 15.7252 14.9827 15.7252M6.72407 13.5626C7.33731 13.5626 7.83444 13.0061 7.83444 12.3196M15.0903 9.56479C15.0903 10.2074 14.625 10.7283 14.051 10.7283M13.045 13.4831C12.471 13.4831 12.0002 12.9622 12.0002 12.3196C12.0002 12.9622 11.5403 13.4831 10.9663 13.4831M8.91004 9.56479C8.91004 10.2074 9.37538 10.7283 9.94939 10.7283M18.3332 1.00018L17.0201 2.57726L18.2808 2.77943L16.9821 4.60746M5.66715 1.00018L6.98024 2.57726L5.71953 2.77943L7.01822 4.60746M22.6668 5.32746L20.9181 6.25987L22.0212 6.97274L20.208 8.12844M1.3335 5.32746L3.08218 6.25987L1.97918 6.97274L3.79229 8.12844" stroke="#0005B0" stroke-width="0.867209" stroke-miterlimit="10" stroke-linecap="round" stroke-linejoin="round"/>
</g>
</svg>
