<svg width="25" height="24" viewBox="0 0 25 24" fill="none" xmlns="http://www.w3.org/2000/svg">
<path d="M10.5482 19.9487H14.7832C14.7832 20.9744 14.0241 22 12.6657 22C11.3073 22 10.5482 20.9744 10.5482 19.9487ZM21.392 15.6153L20.221 13.722C19.7774 13.0051 19.5434 12.1846 19.5434 11.3507V8.6564C19.5434 4.98563 16.4582 2 12.6668 2C8.8754 2 5.79018 4.98563 5.79018 8.6564V11.3507C5.79018 12.1846 5.5562 13.0051 5.11258 13.722L3.9416 15.6153C3.58374 16.1917 3.57529 16.8871 3.91832 17.4738C4.26136 18.0604 4.88177 18.4103 5.57737 18.4103H19.7583C20.455 18.4103 21.0754 18.0594 21.4184 17.4738C21.7583 16.8881 21.7498 16.1927 21.392 15.6153Z" fill="#54B6AB"/>
</svg>
