<svg width="25" height="24" viewBox="0 0 25 24" fill="none" xmlns="http://www.w3.org/2000/svg">
<path d="M21.0284 15.7398L19.8909 13.8466C19.4836 13.1697 19.2697 12.3953 19.2697 11.6066V8.91246C19.2697 5.10137 16.1576 2 12.3327 2C8.50779 2 5.39563 5.10035 5.39563 8.91246V11.6066C5.39563 12.3953 5.18067 13.1697 4.77443 13.8466L3.63695 15.7398C3.24099 16.3972 3.23173 17.1889 3.61021 17.8556C3.98971 18.5243 4.67569 18.9232 5.44602 18.9232H9.53935C9.53112 19.0094 9.5054 19.0925 9.5054 19.1796C9.5054 20.7354 10.7735 22 12.3337 22C13.8939 22 15.162 20.7354 15.162 19.1796C15.162 19.0925 15.1363 19.0094 15.1281 18.9232H19.2214C19.9917 18.9232 20.6787 18.5242 21.0572 17.8566C21.4346 17.1889 21.4244 16.3972 21.0284 15.7398ZM13.6172 19.1796C13.6172 19.8863 13.0403 20.4616 12.3316 20.4616C11.623 20.4616 11.0461 19.8863 11.0461 19.1796C11.0461 19.0925 11.0625 19.0073 11.08 18.9232H13.5833C13.6008 19.0073 13.6172 19.0925 13.6172 19.1796ZM19.713 17.0977C19.6636 17.1838 19.5186 17.3838 19.2193 17.3838H5.44396C5.14571 17.3838 4.99967 17.1838 4.9503 17.0977C4.90196 17.0115 4.80426 16.7849 4.9575 16.5305L6.095 14.6373C6.64626 13.7215 6.93628 12.6733 6.93628 11.6066V8.91246C6.93628 5.94954 9.35627 3.53838 12.3306 3.53838C15.3049 3.53838 17.725 5.94954 17.725 8.91246V11.6066C17.725 12.6733 18.016 13.7215 18.5662 14.6373L19.7037 16.5305C19.858 16.7849 19.7613 17.0115 19.713 17.0977Z" fill="#404040"/>
</svg>
