<svg width="280" height="56" viewBox="0 0 280 56" fill="none" xmlns="http://www.w3.org/2000/svg">
<g clip-path="url(#clip0_2455_2429)">
<path d="M19.8339 35.867C16.083 35.867 12.9537 35.2373 10.8115 34.0709V55.1041H6.52297C3.57432 55.1041 -0.000183105 53.1263 -0.000183105 47.3746V3.05554C3.03668 1.97789 10.1857 0.541016 14.0248 0.541016H20.0985C30.5532 0.541016 37.9668 6.5632 37.9668 17.3524C37.9668 28.8601 30.1038 35.8712 19.8297 35.8712L19.8339 35.867ZM18.7628 9.70742H15.2765C13.9366 9.70742 12.059 10.1596 10.8115 10.4259V25.7962C12.6891 26.3371 15.6377 26.6963 18.4058 26.6963C23.9461 26.6963 26.8947 23.5521 26.8947 18.3371C26.8947 12.1332 24.3955 9.70742 18.7628 9.70742Z" fill="#F4F4F4"/>
<path d="M58.0738 39.1041H51.4624C52.2647 44.2261 56.9103 47.4633 62.8076 47.4633C67.008 47.4633 72.0106 46.6562 75.2281 43.5965H75.5851V46.8336C75.5851 52.0487 72.103 56.0043 60.9342 56.0043C50.929 56.0043 41.1002 48.0043 41.1002 35.5119C41.1002 21.9377 49.3203 13.401 60.846 13.401C69.2426 13.401 77.1056 19.5119 77.1056 29.2235C77.1056 36.6826 71.4771 39.1126 58.0738 39.1126V39.1041ZM59.9514 21.8447C55.1252 21.8447 51.7313 25.8891 51.4624 30.5632V31.9113H55.9316C65.4916 31.9113 67.6338 30.8336 67.6338 27.9557C67.6338 23.9113 64.597 21.8447 59.9514 21.8447Z" fill="#F4F4F4"/>
<path d="M109.268 24.1819C107.748 23.6409 106.051 23.0155 103.371 23.0155C98.9016 23.0155 96.4024 25.53 96.4024 31.7339V55.1042H93.6344C89.1652 55.1042 86.309 52.8559 86.309 48.6341V29.8448C86.309 21.7561 90.5093 13.9336 101.229 13.9336C107.395 13.9336 109.625 17.53 109.625 20.5855V24.1819H109.268Z" fill="#F4F4F4"/>
<path d="M141.161 9.79621C139.641 9.25527 137.768 8.89605 135.352 8.89605C131.152 8.89605 128.115 10.3329 128.115 15.7254V19.4106H139.641V22.1956C139.641 25.792 135.89 27.9473 132.492 27.9473H128.115V55.0957H124.095C120.878 55.0957 118.022 52.577 118.022 49.0736V14.9225C118.022 9.17075 121.953 0.00012207 133.748 0.00012207C138.125 0.00012207 141.523 2.4259 141.523 6.38153V9.79621H141.166H141.161Z" fill="#F4F4F4"/>
<path d="M162.604 13.3926C174.756 13.3926 181.724 23.2816 181.724 34.0666C181.724 46.2927 174.756 56.0001 161.714 56.0001C149.562 56.0001 142.594 46.2927 142.594 35.5077C142.594 23.2816 149.562 13.3968 162.604 13.3968V13.3926ZM161.71 22.4702C155.9 22.4702 152.956 27.326 152.956 34.0666C152.956 42.1554 155.905 46.9224 162.604 46.9224C168.413 46.9224 171.27 42.1596 171.27 35.5077C171.27 27.326 168.321 22.4745 161.71 22.4745V22.4702Z" fill="#F4F4F4"/>
<path d="M214.067 24.1819C212.547 23.6409 210.85 23.0155 208.17 23.0155C203.701 23.0155 201.201 25.53 201.201 31.7339V55.1042H198.433C193.964 55.1042 191.108 52.8559 191.108 48.6341V29.8448C191.108 21.7561 195.308 13.9336 206.028 13.9336C212.194 13.9336 214.424 17.53 214.424 20.5855V24.1819H214.067Z" fill="#F4F4F4"/>
<path d="M277.501 55.1041C272.053 55.1041 269.906 52.4966 269.906 47.7338V32.0043C269.906 25.2637 266.87 22.3857 262.493 22.3857C258.385 22.3857 255.613 25.2637 255.613 30.8337V55.1041H252.933C248.468 55.1041 245.607 52.4966 245.607 47.7338V32.0043C245.607 25.2637 242.482 22.3857 238.101 22.3857C234.17 22.3857 231.221 25.5299 231.221 31.1041V55.1041H228.541C224.433 55.1041 221.216 52.4079 221.216 47.7338V31.9113C221.216 20.8559 227.025 13.3926 239.265 13.3926C244.536 13.3926 248.644 15.8184 251.593 19.774C253.916 16.0001 258.292 13.3926 263.207 13.3926C272.498 13.3926 280.004 19.0555 280.004 30.652V55.0999H277.501V55.1041Z" fill="#F4F4F4"/>
</g>
<defs>
<clipPath id="clip0_2455_2429">
<rect width="280" height="56" fill="white"/>
</clipPath>
</defs>
</svg>
