<svg width="24" height="24" viewBox="0 0 24 24" fill="none" xmlns="http://www.w3.org/2000/svg">
<path d="M16.0357 6.21053C16.0357 8.10926 14.4653 9.67105 12.5 9.67105V11.1711C15.2686 11.1711 17.5357 8.96261 17.5357 6.21053H16.0357ZM12.5 9.67105C10.5347 9.67105 8.96429 8.10926 8.96429 6.21053H7.46429C7.46429 8.96261 9.73142 11.1711 12.5 11.1711V9.67105ZM8.96429 6.21053C8.96429 4.31179 10.5347 2.75 12.5 2.75V1.25C9.73142 1.25 7.46429 3.45844 7.46429 6.21053H8.96429ZM12.5 2.75C14.4653 2.75 16.0357 4.31179 16.0357 6.21053H17.5357C17.5357 3.45844 15.2686 1.25 12.5 1.25V2.75ZM9.28571 14.3289H15.7143V12.8289H9.28571V14.3289ZM15.7143 21.25H9.28571V22.75H15.7143V21.25ZM9.28571 21.25C7.32042 21.25 5.75 19.6882 5.75 17.7895H4.25C4.25 20.5416 6.51714 22.75 9.28571 22.75V21.25ZM19.25 17.7895C19.25 19.6882 17.6796 21.25 15.7143 21.25V22.75C18.4829 22.75 20.75 20.5416 20.75 17.7895H19.25ZM15.7143 14.3289C17.6796 14.3289 19.25 15.8907 19.25 17.7895H20.75C20.75 15.0374 18.4829 12.8289 15.7143 12.8289V14.3289ZM9.28571 12.8289C6.51714 12.8289 4.25 15.0374 4.25 17.7895H5.75C5.75 15.8907 7.32042 14.3289 9.28571 14.3289V12.8289Z" fill="#404040"/>
</svg>
