<svg width="72" height="72" viewBox="0 0 72 72" fill="none" xmlns="http://www.w3.org/2000/svg">
<g id="Progress">
<path id="Ellipse 2" d="M72 36C72 55.8823 55.8823 72 36 72C16.1177 72 0 55.8823 0 36C0 16.1177 16.1177 0 36 0C55.8823 0 72 16.1177 72 36ZM6.95111 36C6.95111 52.0433 19.9567 65.0489 36 65.0489C52.0433 65.0489 65.0489 52.0433 65.0489 36C65.0489 19.9567 52.0433 6.95111 36 6.95111C19.9567 6.95111 6.95111 19.9567 6.95111 36Z" fill="#A8C4FF"/>
<path id="Ellipse 3" d="M36 3.6C36 1.61178 37.6158 -0.0186434 39.594 0.179851C43.3706 0.558775 47.0712 1.53336 50.5564 3.07414C55.1415 5.10121 59.2527 8.0636 62.6267 11.7715C66.0007 15.4795 68.563 19.8513 70.1496 24.6068C71.7362 29.3624 72.312 34.3969 71.8402 39.3879C71.3684 44.3789 69.8594 49.2163 67.4099 53.5904C64.9603 57.9644 61.6241 61.7786 57.6151 64.7886C53.6061 67.7987 49.0126 69.9382 44.1289 71.0702C40.4167 71.9307 36.599 72.1946 32.8184 71.8591C30.8379 71.6834 29.5563 69.7791 29.9289 67.8261C30.3014 65.8731 32.1884 64.6158 34.1726 64.742C36.9616 64.9193 39.7682 64.6901 42.5031 64.0562C46.4101 63.1506 50.0849 61.439 53.2921 59.0309C56.4993 56.6229 59.1682 53.5715 61.1279 50.0723C63.0876 46.5731 64.2948 42.7031 64.6722 38.7103C65.0496 34.7175 64.5889 30.6899 63.3197 26.8855C62.0504 23.081 60.0006 19.5836 57.3014 16.6172C54.6022 13.6509 51.3132 11.281 47.6451 9.65931C45.0774 8.52414 42.3635 7.77314 39.5907 7.42471C37.618 7.17682 36 5.58822 36 3.6Z" fill="#0005B0"/>
</g>
</svg>
