<svg width="23" height="22" viewBox="0 0 23 22" fill="none" xmlns="http://www.w3.org/2000/svg">
<g id="Group">
<path id="Vector" d="M2.13602 21.6666C1.96 21.6666 1.81919 21.6333 1.67838 21.5999C0.97431 21.3666 0.833496 20.6333 0.833496 20.5999V13.0333C1.43195 6.86666 6.0788 6.46666 8.08539 6.59999C8.78946 6.63333 9.35271 7.19999 9.35271 7.86666V18.4666C9.35271 18.8333 9.2119 19.1999 8.93027 19.4666C8.64865 19.7333 8.26141 19.8666 7.87417 19.8666C6.36043 19.8333 5.16351 20.2333 4.91709 20.3333C3.75538 21.1999 2.84009 21.6666 2.13602 21.6666ZM1.46716 20.4999C1.50236 20.5666 1.57277 20.8999 1.8896 20.9999C2.17122 21.0999 2.9105 21.0666 4.45944 19.7666C4.49465 19.7333 4.52985 19.7333 4.56505 19.6999C4.63546 19.6666 6.00839 19.1333 7.83897 19.1666C8.05019 19.1666 8.26141 19.0999 8.40222 18.9666C8.54304 18.8333 8.64865 18.6333 8.64865 18.4333V7.83332C8.64865 7.49999 8.36702 7.23332 8.01498 7.19999C5.76197 7.09999 1.99521 7.66666 1.46716 13.0666V20.4999Z" fill="#4172D2"/>
<path id="Vector_2" d="M7.2401 12.533C6.04319 12.533 4.52944 12.333 3.75497 11.433C3.64936 11.2996 3.64936 11.0996 3.79017 10.9663C3.93098 10.8663 4.1422 10.8663 4.28302 10.9996C5.19831 12.0996 7.90897 11.8996 8.89466 11.733C9.07068 11.6996 9.24669 11.833 9.2819 11.9996C9.3171 12.1663 9.17629 12.333 9.00027 12.3663C8.92986 12.3996 8.19059 12.533 7.2401 12.533ZM7.2401 16.8996C6.04319 16.8996 4.52944 16.6996 3.75497 15.7996C3.64936 15.6663 3.64936 15.4663 3.79017 15.333C3.93098 15.233 4.1422 15.233 4.28302 15.3663C5.19831 16.4663 7.90897 16.2663 8.89466 16.0996C9.07068 16.0663 9.24669 16.1996 9.2819 16.3663C9.3171 16.533 9.17629 16.6996 9.00027 16.733C8.92986 16.7996 8.19059 16.8996 7.2401 16.8996ZM20.8638 21.6663C20.1597 21.6663 19.2445 21.1996 18.1179 20.2663C17.8715 20.1663 16.6746 19.7663 15.1609 19.7996C14.7736 19.7996 14.3864 19.6663 14.1048 19.3996C13.8231 19.1329 13.6823 18.7996 13.6823 18.3996V7.83299C13.6823 7.16633 14.2456 6.59966 14.9496 6.56633C16.921 6.46633 21.6031 6.833 22.1663 12.9996V20.5996C22.1663 20.6329 22.0255 21.3663 21.3215 21.5996C21.2158 21.6329 21.0398 21.6663 20.8638 21.6663ZM15.4073 19.1663C17.1323 19.1663 18.3996 19.6663 18.47 19.6996C18.5052 19.6996 18.5404 19.7329 18.5756 19.7663C20.1245 21.0663 20.8638 21.0996 21.1454 20.9996C21.4271 20.8996 21.5327 20.5996 21.5679 20.4996V13.033C21.0046 7.66632 17.2379 7.09966 15.02 7.23299C14.668 7.26633 14.3864 7.53299 14.3864 7.86632V18.4663C14.3864 18.6663 14.4568 18.8663 14.6328 18.9996C14.7736 19.1329 14.9848 19.2329 15.1961 19.1996C15.2665 19.1663 15.3369 19.1663 15.4073 19.1663ZM15.7945 12.533H15.2313C15.0553 12.533 14.9144 12.3663 14.9144 12.1996C14.9144 12.033 15.0905 11.8996 15.2665 11.8996C16.0057 11.933 16.7098 11.8996 17.2379 11.7996C17.4139 11.7663 17.5899 11.8663 17.6603 12.033C17.6955 12.1996 17.5899 12.3663 17.4139 12.433C16.8858 12.4996 16.3578 12.533 15.7945 12.533Z" fill="#4172D2"/>
<path id="Vector_3" d="M15.796 12.5333H15.2327C14.5287 12.5 14.0358 12.4 14.0006 12.4C13.8246 12.3667 13.6838 12.2 13.719 12.0333C13.7542 11.8667 13.9302 11.7333 14.1062 11.7667C14.1062 11.7667 14.5991 11.8333 15.2327 11.8667C15.972 11.9 16.6761 11.8667 17.2041 11.7667C17.9082 11.6333 18.401 11.3667 18.6827 11.0333C18.7883 10.9 18.9995 10.8667 19.1755 11C19.3163 11.1 19.3515 11.3 19.2107 11.4667C18.8235 11.9333 18.1898 12.2667 17.3449 12.4333C16.8873 12.5 16.3592 12.5333 15.796 12.5333ZM15.7608 16.9C14.8103 16.9 14.071 16.7666 14.0006 16.7666C13.8246 16.7333 13.6838 16.5666 13.719 16.4C13.7542 16.2333 13.9302 16.1 14.1062 16.1333C14.1414 16.1333 17.5913 16.7 18.7179 15.4C18.8235 15.2666 19.0347 15.2333 19.2107 15.3666C19.3515 15.4666 19.3867 15.6666 19.2459 15.8333C18.4714 16.7 16.9577 16.9 15.7608 16.9ZM11.7124 10.0333H11.2899C11.1139 10.0333 10.9379 9.9 10.9379 9.7C10.9379 9.53334 11.0787 9.36667 11.2899 9.36667H11.7124C11.8884 9.36667 12.0644 9.5 12.0644 9.7C12.0644 9.9 11.9236 10.0333 11.7124 10.0333ZM10.6211 8.16668C10.4451 8.16668 10.269 8.03334 10.269 7.83334V0.666706C10.269 0.50004 10.4099 0.333374 10.6211 0.333374H12.3812C12.5573 0.333374 12.7333 0.466707 12.7333 0.666706V7.86668C12.7333 8.03334 12.5925 8.20001 12.3812 8.20001C12.17 8.20001 12.0292 8.06668 12.0292 7.86668V0.966705H10.9731V7.83334C10.9731 8.03334 10.8323 8.16668 10.6211 8.16668Z" fill="#4172D2"/>
<path id="Vector_4" d="M8.96462 13.0334C8.89421 13.0334 8.8238 13.0001 8.7534 12.9667C8.61258 12.8667 8.57738 12.6667 8.68299 12.5001L11.0064 9.50008C11.112 9.36675 11.3232 9.33342 11.4993 9.43342C11.6401 9.53342 11.6753 9.73342 11.5697 9.90008L9.24624 12.9001C9.17584 13.0001 9.07023 13.0334 8.96462 13.0334ZM8.96462 10.2667C8.89421 10.2667 8.8238 10.2334 8.7534 10.2001C8.61258 10.1001 8.57738 9.90008 8.68299 9.73342L10.3375 7.63342C10.4432 7.50009 10.6544 7.46676 10.8304 7.56676L10.8656 7.60009C11.0064 7.70009 11.0416 7.90009 10.936 8.06676C10.9008 8.10009 10.8304 8.16676 10.7952 8.16676L9.24624 10.1334C9.17584 10.2001 9.07023 10.2667 8.96462 10.2667ZM14.0339 10.2667C13.9283 10.2667 13.8227 10.2334 13.7523 10.1334L12.2033 8.13342C12.1329 8.10009 12.0977 8.06676 12.0625 8.03342C11.9569 7.90009 11.9921 7.70009 12.1329 7.56676L12.1681 7.53343C12.3089 7.43343 12.5202 7.46676 12.6258 7.60009L14.2803 9.70008C14.3859 9.83342 14.3507 10.0334 14.2099 10.1667C14.1747 10.2334 14.1043 10.2667 14.0339 10.2667Z" fill="#4172D2"/>
<path id="Vector_5" d="M14.0336 13.0336C13.928 13.0336 13.8224 13.0002 13.752 12.9002L11.4286 9.90024C11.323 9.7669 11.3582 9.5669 11.499 9.43357C11.6398 9.33357 11.851 9.36691 11.9918 9.50024L14.3153 12.5002C14.4209 12.6336 14.3857 12.8336 14.2449 12.9669C14.1745 13.0336 14.1041 13.0336 14.0336 13.0336Z" fill="#4172D2"/>
</g>
</svg>
