<svg width="29" height="25" viewBox="0 0 29 25" fill="none" xmlns="http://www.w3.org/2000/svg">
<path fill-rule="evenodd" clip-rule="evenodd" d="M19.5125 6.1198C21.1628 6.1198 22.5006 4.95388 22.5006 3.51564C22.5006 2.07739 21.1628 0.911469 19.5125 0.911469C17.8622 0.911469 16.5244 2.07739 16.5244 3.51564C16.5244 4.95388 17.8622 6.1198 19.5125 6.1198Z" stroke="#1FCCB7" stroke-width="1.5" stroke-linecap="round" stroke-linejoin="round"/>
<path fill-rule="evenodd" clip-rule="evenodd" d="M24.0063 11.7844H23.3227C20.9561 11.7844 20.6405 11.1125 19.2469 9.4448C18.4721 8.51727 17.4611 7.75888 16.2934 7.22918L16.2552 7.20626C16.1966 7.17814 16.1356 7.15314 16.0747 7.13022C12.1503 5.4635 7.41539 6.64912 5.10472 9.87709L4.84415 10.2406C4.31969 10.9733 4.57602 11.9377 5.41667 12.3948C6.25733 12.8519 7.36398 12.6285 7.88844 11.8958L8.14781 11.5323C9.04863 10.2681 10.6368 9.50095 12.3443 9.50522C12.471 9.50522 12.5977 9.50522 12.7232 9.51876L9.257 14.9521C8.94047 15.4482 8.34014 15.7556 7.68884 15.7552H3.82461C2.83443 15.7552 2.03174 16.4548 2.03174 17.3177C2.03174 18.1807 2.83443 18.8802 3.82461 18.8802H7.69003C9.35014 18.8795 10.9171 18.2115 11.9367 17.0698L14.5818 19.1156C14.9633 19.413 15.1808 19.8383 15.1794 20.2844V22.5261C15.1794 23.389 15.9821 24.0886 16.9723 24.0886C17.9625 24.0886 18.7652 23.389 18.7652 22.5261V20.2844C18.7652 18.9451 18.1079 17.6698 16.9592 16.7802L13.7702 14.3094L15.9599 10.8719C16.0983 11.0011 16.2276 11.1375 16.3472 11.2802C18.4138 13.7552 19.8134 14.9063 23.3227 14.9063H24.0063C24.9965 14.9063 25.7992 14.2067 25.7992 13.3438C25.7992 12.4808 24.9965 11.7813 24.0063 11.7813V11.7844Z" stroke="#1FCCB7" stroke-width="1.5" stroke-linecap="round" stroke-linejoin="round"/>
</svg>
