<svg width="29" height="25" viewBox="0 0 29 25" fill="none" xmlns="http://www.w3.org/2000/svg">
<path fill-rule="evenodd" clip-rule="evenodd" d="M19.5443 6.11983C21.1946 6.11983 22.5324 4.95391 22.5324 3.51567C22.5324 2.07742 21.1946 0.911499 19.5443 0.911499C17.894 0.911499 16.5562 2.07742 16.5562 3.51567C16.5562 4.95391 17.894 6.11983 19.5443 6.11983Z" stroke="#A8C4FF" stroke-width="1.5" stroke-linecap="round" stroke-linejoin="round"/>
<path fill-rule="evenodd" clip-rule="evenodd" d="M24.0386 11.7844H23.3549C20.9883 11.7844 20.6727 11.1125 19.2791 9.44477C18.5043 8.51724 17.4934 7.75885 16.3256 7.22915L16.2874 7.20623C16.2288 7.1781 16.1679 7.1531 16.1069 7.13019C12.1826 5.46347 7.44762 6.64909 5.13694 9.87706L4.87638 10.2406C4.35192 10.9732 4.60824 11.9377 5.4489 12.3948C6.28956 12.8518 7.39621 12.6285 7.92067 11.8958L8.18004 11.5323C9.08086 10.2681 10.669 9.50092 12.3765 9.50519C12.5032 9.50519 12.6299 9.50519 12.7554 9.51873L9.28923 14.9521C8.97269 15.4481 8.37237 15.7556 7.72106 15.7552H3.85683C2.86666 15.7552 2.06396 16.4547 2.06396 17.3177C2.06396 18.1806 2.86666 18.8802 3.85683 18.8802H7.72226C9.38237 18.8795 10.9493 18.2115 11.969 17.0698L14.614 19.1156C14.9955 19.413 15.213 19.8383 15.2117 20.2844V22.526C15.2117 23.389 16.0144 24.0885 17.0045 24.0885C17.9947 24.0885 18.7974 23.389 18.7974 22.526V20.2844C18.7974 18.9451 18.1401 17.6698 16.9914 16.7802L13.8025 14.3094L15.9922 10.8719C16.1305 11.0011 16.2598 11.1374 16.3794 11.2802C18.446 13.7552 19.8456 14.9062 23.3549 14.9062H24.0386C25.0287 14.9062 25.8314 14.2067 25.8314 13.3437C25.8314 12.4808 25.0287 11.7812 24.0386 11.7812V11.7844Z" stroke="#A8C4FF" stroke-width="1.5" stroke-linecap="round" stroke-linejoin="round"/>
</svg>
