<svg width="24" height="24" viewBox="0 0 24 24" fill="none" xmlns="http://www.w3.org/2000/svg">
<path d="M14.9998 10L12.9783 12.5088C12.1773 13.5029 11.7768 14 11.2498 14C10.7229 14 10.3224 13.5029 9.52135 12.5088L8.99984 11.8616M18.8889 16C20.4907 13.0809 20.9019 9.7498 20.9828 7.6369C21.0292 6.42655 20.0293 5.5 18.8181 5.5H18.2287C17.2622 5.5 16.4787 4.7165 16.4787 3.75C16.4787 2.7835 15.6952 2 14.7287 2H9.56273C8.43514 2 7.52106 2.91409 7.52106 4.04167C7.52106 5.16925 6.60697 6.08333 5.47939 6.08333H5.17053C3.96243 6.08333 2.9642 7.00211 3.02511 8.20867C3.1236 10.1595 3.55709 13.1683 5.11091 16C5.53352 16.7702 6.1075 17.543 6.74493 18.2795C8.72484 20.567 9.7148 21.7107 11.9999 21.7107C14.285 21.7107 15.275 20.567 17.2549 18.2795C17.8923 17.543 18.4663 16.7702 18.8889 16Z" stroke="#000043" stroke-width="1.5" stroke-linecap="round"/>
</svg>
