<svg width="170" height="56" viewBox="0 0 170 56" fill="none" xmlns="http://www.w3.org/2000/svg">
<g id="shirt" clip-path="url(#clip0_2333_2519)">
<g id="Layer 1">
<g id="Group">
<path id="Vector" d="M14.1878 56C6.69034 56 1.15855 52.1594 1.15855 48.0508V43.4964H1.51689C3.74701 45.4602 8.92393 47.337 13.652 47.337C18.6481 47.337 21.0591 45.9094 21.0591 42.8696C21.0591 40.5472 19.6326 39.4747 12.6709 38.4928C4.10535 37.3334 0 33.8479 0 27.6884C0 20.1848 6.7808 13.6666 17.1346 13.6666C26.3265 13.6666 30.0735 18.3986 30.0735 22.3297V26.1703H29.6281C27.5755 24.0254 22.9343 22.4202 18.1158 22.4202C11.9577 22.4202 9.9955 24.297 9.9955 26.8875C9.9955 29.0324 11.2445 29.8333 18.1158 30.9057C26.5039 32.3333 31.0546 35.9963 31.0546 42.3369C31.0546 50.9094 24.987 56.0035 14.1878 56.0035V56Z" fill="white"/>
<path id="Vector_2" d="M73.0859 55.1051C68.8901 55.1051 66.2147 52.6921 66.2147 48.3188V31.8841C66.2147 25.2753 62.6451 22.5942 58.2719 22.5942C55.0606 22.5942 50.9553 25.0072 50.9553 32.1522V55.1051H47.6536C42.9255 55.1051 40.7823 52.5145 40.7823 48.3188V1.07239H43.9066C48.7252 1.07239 51.0457 3.75348 51.0457 7.50353V19.1158C52.5626 16.7028 55.9548 13.6666 59.7922 13.6666C70.2331 13.6666 76.3911 19.9166 76.3911 31.4384V55.1051H73.0894H73.0859Z" fill="white"/>
<path id="Vector_3" d="M94.2351 11.6993C91.0239 11.6993 88.4354 9.01822 88.4354 5.80439C88.4354 2.59056 91.0239 0 94.2351 0C97.4463 0 100.216 2.59056 100.216 5.80439C100.216 9.01822 97.4498 11.6993 94.2351 11.6993ZM101.374 55.4638C93.6089 55.4638 89.3261 51.087 89.3261 42.8696V15.4528H92.1824C96.6461 15.4528 99.3216 17.8623 99.3216 22.9564V41.8912C99.3216 45.9999 101.106 47.2499 105.48 47.2499H107.355V49.3948C107.355 53.7716 105.661 55.4673 101.374 55.4673V55.4638Z" fill="white"/>
<path id="Vector_4" d="M136.983 24.3805C135.467 23.8443 133.772 23.221 131.093 23.221C126.63 23.221 124.132 25.7211 124.132 31.8841V55.1051H121.366C116.902 55.1051 114.049 52.8732 114.049 48.674V30.0073C114.049 21.971 118.245 14.1993 128.954 14.1993C135.112 14.1993 137.342 17.7718 137.342 20.8081V24.3805H136.983Z" fill="white"/>
<path id="Vector_5" d="M153.582 5.44916H155.993V14.5579H170.004V18.7571C170.004 20.8115 168.128 23.4891 163.936 23.4891H155.993V39.3876C155.993 44.5687 158.314 46.6231 162.329 46.6231C165.54 46.6231 168.041 46.1774 169.558 45.1955H170.004V48.7679C170.004 52.9672 166.97 55.5542 161.08 55.5542C150.907 55.5542 145.998 50.018 145.998 40.5506V16.2536C145.998 10.8949 149.745 5.44568 153.582 5.44568V5.44916Z" fill="white"/>
</g>
</g>
</g>
<defs>
<clipPath id="clip0_2333_2519">
<rect width="170" height="56" fill="white"/>
</clipPath>
</defs>
</svg>
