<svg width="30" height="27" viewBox="0 0 30 27" fill="none" xmlns="http://www.w3.org/2000/svg">
<path fill-rule="evenodd" clip-rule="evenodd" d="M14.932 6.42847C13.2808 6.42847 11.9422 5.21326 11.9422 3.71423C11.9422 2.2152 13.2808 1 14.932 1C16.5833 1 17.9219 2.2152 17.9219 3.71423C17.9219 5.21326 16.5833 6.42847 14.932 6.42847Z" stroke="#1FCCB7" stroke-width="1.5" stroke-linecap="round" stroke-linejoin="round"/>
<path fill-rule="evenodd" clip-rule="evenodd" d="M5.39884 13.1673C6.2611 9.2903 9.29997 8.86037 12.5398 8.32729C13.9536 8.09488 15.4111 8.38406 16.5892 9.13071L19.5958 11.0383C20.1353 11.3815 20.8387 11.4286 21.4279 11.161L21.9063 10.9438C22.7927 10.5418 23.8703 10.8682 24.3131 11.6729C24.756 12.4775 24.3964 13.4558 23.5101 13.8578L23.0317 14.075C21.2649 14.8773 19.1559 14.7365 17.5376 13.708L17.3271 13.5745V15.5287L19.3386 17.3548C20.3491 18.2688 20.9153 19.5114 20.9113 20.8063V24.3424C20.9113 25.2418 20.1081 25.9709 19.1174 25.9709C18.1266 25.9709 17.3235 25.2418 17.3235 24.3424V20.8063C17.3249 20.3741 17.1359 19.9593 16.7985 19.6543L14.9316 17.9596V19.3373C14.9319 20.5037 14.4724 21.6316 13.6364 22.5173L10.9121 25.402C10.5001 25.8596 9.8475 26.0786 9.20675 25.9744C8.56601 25.8702 8.03772 25.4591 7.82637 24.9002C7.61503 24.3412 7.75379 23.7222 8.18895 23.2827L10.9121 20.398C11.1909 20.1026 11.3441 19.7264 11.3438 19.3373V11.8341L10.4756 11.9774C9.75188 12.0955 9.18212 12.6046 9.04045 13.2596L8.92086 13.8024C8.79567 14.3732 8.34457 14.84 7.73749 15.027C7.13041 15.2139 6.45957 15.0927 5.97767 14.7088C5.49578 14.325 5.27604 13.737 5.40123 13.1662L5.39884 13.1673Z" stroke="#1FCCB7" stroke-width="1.5" stroke-linecap="round" stroke-linejoin="round"/>
</svg>
