<svg width="24" height="18" viewBox="0 0 24 18" fill="none" xmlns="http://www.w3.org/2000/svg">
<g clip-path="url(#clip0_244_33561)">
<path d="M0 -0.000244141H24V18.4311H0V-0.000244141Z" fill="white"/>
<path d="M0 0H24V6H0V0Z" fill="#179900"/>
<path d="M0 12H24V18H0V12Z" fill="black"/>
<path d="M5.77542 7.50421L6.19451 8.64845H7.5509L6.45357 9.35572L6.8727 10.5L5.77542 9.79281L4.67809 10.5L5.09722 9.35572L3.99994 8.64845H5.35628L5.77542 7.50421ZM12.0281 7.50421L12.4472 8.64845H13.8035L12.7063 9.35572L13.1254 10.5L12.0281 9.79281L10.9308 10.5L11.3499 9.35572L10.2526 8.64845H11.609L12.0281 7.50421Z" fill="#D80027"/>
<path d="M11.9718 7.50006L12.3909 8.6443H13.7473L12.65 9.35157L13.0691 10.4958L11.9718 9.78866L10.8745 10.4958L11.2936 9.35157L10.1964 8.6443H11.5527L11.9718 7.50006ZM18.2245 7.50006L18.6436 8.6443H20L18.9027 9.35157L19.3218 10.4958L18.2245 9.78866L17.1272 10.4958L17.5463 9.35157L16.449 8.6443H17.8054L18.2245 7.50006Z" fill="#D80027"/>
</g>
<defs>
<clipPath id="clip0_244_33561">
<rect width="24" height="18" rx="2" fill="white"/>
</clipPath>
</defs>
</svg>
