<svg width="23" height="22" viewBox="0 0 23 22" fill="none" xmlns="http://www.w3.org/2000/svg">
<g id="Group">
<path id="Vector" d="M19.6036 1.38389C19.6036 1.18067 19.7747 1.01607 19.9859 1.01607H21.7845C21.9958 1.01607 22.1668 1.18067 22.1668 1.38389C22.1668 1.58711 21.9958 1.7517 21.7845 1.7517H19.9859C19.7747 1.7517 19.6036 1.58711 19.6036 1.38389ZM19.9859 3.38435H21.1457C21.3569 3.38435 21.5279 3.21975 21.5279 3.01653C21.5279 2.81331 21.3569 2.64872 21.1457 2.64872H19.9859C19.7747 2.64872 19.6036 2.81377 19.6036 3.01653C19.6036 3.21929 19.7747 3.38435 19.9859 3.38435ZM21.7845 4.28182H19.9859C19.7747 4.28182 19.6036 4.44642 19.6036 4.64963C19.6036 4.85285 19.7747 5.01745 19.9859 5.01745H21.7845C21.9958 5.01745 22.1668 4.85285 22.1668 4.64963C22.1668 4.44642 21.9958 4.28182 21.7845 4.28182ZM21.1457 5.91446H19.9859C19.7747 5.91446 19.6036 6.07906 19.6036 6.28228C19.6036 6.4855 19.7747 6.65009 19.9859 6.65009H21.1457C21.3569 6.65009 21.5279 6.4855 21.5279 6.28228C21.5279 6.07906 21.3569 5.91446 21.1457 5.91446ZM19.7781 9.94922C19.7781 11.4413 18.5165 12.6552 16.9658 12.6552C15.415 12.6552 14.1534 11.4413 14.1534 9.94922C14.1534 8.9923 14.6874 8.0969 15.5468 7.61253C15.6044 7.58011 15.6521 7.53375 15.6853 7.47807C15.7185 7.42239 15.7359 7.35933 15.7359 7.29515V1.51653C15.7359 0.864118 16.2876 0.333313 16.9657 0.333313C17.6438 0.333313 18.1955 0.864118 18.1955 1.51653V7.2952C18.1955 7.35937 18.2129 7.42243 18.2461 7.47811C18.2793 7.53379 18.327 7.58014 18.3846 7.61258C19.2441 8.09699 19.778 8.9923 19.778 9.94927L19.7781 9.94922ZM18.9601 9.94922C18.9601 9.01699 18.2654 8.23823 17.3481 8.06609V1.83111C17.3481 1.73356 17.3078 1.64 17.2361 1.57102C17.1644 1.50204 17.0672 1.46329 16.9658 1.46329C16.8644 1.46329 16.7672 1.50204 16.6955 1.57102C16.6238 1.64 16.5835 1.73356 16.5835 1.83111V8.06609C15.6661 8.23819 14.9715 9.01694 14.9715 9.94922C14.9715 11.0073 15.8662 11.8681 16.9658 11.8681C18.0655 11.8681 18.9601 11.0073 18.9601 9.94922ZM16.9661 8.766H16.9655C16.2875 8.76614 15.7361 9.2969 15.7361 9.94922C15.7361 10.6015 16.2877 11.1324 16.9658 11.1324C17.6439 11.1324 18.1956 10.6016 18.1956 9.94922C18.1956 9.29681 17.644 8.76614 16.9661 8.766ZM7.81619 12.5597C9.84483 12.5597 11.4952 10.9717 11.4952 9.01989C11.4952 7.06803 9.84483 5.48007 7.81619 5.48007C5.78756 5.48007 4.13719 7.06803 4.13719 9.01989C4.13719 10.9717 5.7876 12.5597 7.81619 12.5597ZM10.2864 12.7448H9.99516C9.35092 13.0951 8.60742 13.2953 7.81614 13.2953C7.02487 13.2953 6.28137 13.0951 5.63718 12.7448H5.34588C2.85778 12.7448 0.833496 14.5136 0.833496 16.6878V20.7518C0.833496 21.2563 1.26008 21.6666 1.78438 21.6666H7.43386V20.8259C7.43386 20.0474 6.55442 19.771 6.17629 19.6883L3.74028 19.1554C3.65577 19.137 3.58029 19.0914 3.52623 19.0262C3.47216 18.9611 3.44272 18.8801 3.44272 18.7968V16.9151C3.44272 16.8176 3.483 16.724 3.55469 16.655C3.62638 16.586 3.72362 16.5473 3.82501 16.5473C3.9264 16.5473 4.02363 16.586 4.09532 16.655C4.16702 16.724 4.20729 16.8176 4.20729 16.9151V18.5032L6.34574 18.971C6.996 19.1132 7.49928 19.3936 7.81614 19.7724C8.13301 19.3936 8.63629 19.1132 9.28655 18.971L11.4249 18.5032V16.9151C11.4249 16.8176 11.4652 16.724 11.5369 16.655C11.6086 16.586 11.7058 16.5473 11.8072 16.5473C11.9086 16.5473 12.0059 16.586 12.0775 16.655C12.1492 16.724 12.1895 16.8176 12.1895 16.9151V18.7968C12.1895 18.8801 12.1601 18.9611 12.106 19.0262C12.0519 19.0914 11.9765 19.1369 11.892 19.1554L9.456 19.6883C9.07787 19.771 8.19838 20.0474 8.19838 20.8259V21.6666H13.8479C14.3722 21.6666 14.7987 21.2562 14.7987 20.7518V16.6878C14.7987 14.5136 12.7745 12.7448 10.2863 12.7448H10.2864Z" fill="#FF5722"/>
</g>
</svg>
