<svg width="16" height="17" viewBox="0 0 16 17" fill="none" xmlns="http://www.w3.org/2000/svg">
<g id="Frame">
<path id="Vector" d="M7.65311 2.83265C7.6813 2.76387 7.72932 2.70503 7.79105 2.66362C7.85279 2.62221 7.92544 2.6001 7.99978 2.6001C8.07411 2.6001 8.14676 2.62221 8.2085 2.66362C8.27023 2.70503 8.31825 2.76387 8.34644 2.83265L9.76311 6.23998C9.78963 6.30374 9.83322 6.35894 9.88909 6.39952C9.94496 6.4401 10.0109 6.46448 10.0798 6.46998L13.7584 6.76465C14.0911 6.79131 14.2258 7.20665 13.9724 7.42331L11.1698 9.82465C11.1174 9.86944 11.0784 9.92778 11.057 9.99328C11.0356 10.0588 11.0326 10.1289 11.0484 10.196L11.9051 13.786C11.9223 13.858 11.9178 13.9335 11.8921 14.003C11.8665 14.0724 11.8208 14.1327 11.7609 14.1763C11.7009 14.2198 11.6295 14.2445 11.5555 14.2475C11.4815 14.2504 11.4083 14.2313 11.3451 14.1926L8.19511 12.2693C8.13627 12.2335 8.06869 12.2145 7.99978 12.2145C7.93086 12.2145 7.86328 12.2335 7.80444 12.2693L4.65444 14.1933C4.59128 14.232 4.51808 14.2511 4.44408 14.2481C4.37008 14.2452 4.29861 14.2204 4.23869 14.1769C4.17877 14.1334 4.13308 14.0731 4.10741 14.0036C4.08174 13.9342 4.07722 13.8587 4.09444 13.7866L4.95111 10.196C4.967 10.1289 4.96408 10.0588 4.94267 9.99325C4.92126 9.92773 4.8822 9.86939 4.82978 9.82465L2.02711 7.42331C1.97098 7.37505 1.93038 7.31128 1.91041 7.24C1.89043 7.16873 1.89198 7.09314 1.91485 7.02274C1.93772 6.95235 1.9809 6.89028 2.03895 6.84436C2.097 6.79844 2.16734 6.7707 2.24111 6.76465L5.91978 6.46998C5.98861 6.46448 6.05459 6.4401 6.11046 6.39952C6.16633 6.35894 6.20992 6.30374 6.23644 6.23998L7.65311 2.83265Z" stroke="#F15A24" stroke-opacity="0.8" stroke-width="1.5" stroke-linecap="round" stroke-linejoin="round"/>
</g>
</svg>
