<svg width="75" height="106" viewBox="0 0 75 106" fill="none" xmlns="http://www.w3.org/2000/svg">
<path d="M35.8484 105.934C34.1703 105.937 32.4967 105.758 30.8565 105.403C27.9896 104.812 25.2891 103.59 22.9494 101.827C20.6098 100.063 18.6892 97.8012 17.3261 95.2035C16.2445 92.7738 15.441 90.2288 14.931 87.6175L14.8133 87.1202C13.1325 79.9388 11.0147 72.3443 7.10688 65.4832C6.47658 64.379 5.78746 63.2748 5.12354 62.2127C3.51733 59.808 2.15739 57.2466 1.06443 54.5677C-0.616368 49.974 -0.305421 45.4055 1.98886 42.3964C2.29108 41.9288 2.68431 41.5274 3.14497 41.216C3.60564 40.9046 4.12425 40.6896 4.66973 40.5841C5.00211 40.5438 5.3392 40.5724 5.66013 40.6681C5.98105 40.7638 6.27896 40.9246 6.53541 41.1404C6.73545 41.3004 6.89951 41.5011 7.01683 41.7291C7.13414 41.9572 7.20206 42.2075 7.21613 42.4638H6.66987C6.65672 42.2851 6.60659 42.1111 6.52266 41.9529C6.43874 41.7947 6.32287 41.6558 6.18244 41.545C5.98291 41.3788 5.7522 41.2544 5.50393 41.1791C5.25567 41.1039 4.99487 41.0792 4.73696 41.1067C3.79016 41.3232 2.96266 41.8966 2.42587 42.7082C0.249241 45.5825 -0.0953222 49.9402 1.58547 54.357C2.66918 57.0168 4.02083 59.5586 5.61938 61.943C6.28329 63.0135 6.97241 64.1177 7.61112 65.2303C11.5274 72.142 13.6704 79.7786 15.3512 87.0022L15.4688 87.4995C15.9681 90.0676 16.7576 92.5703 17.8219 94.9591C19.1466 97.4834 21.0135 99.6813 23.2879 101.394C25.5624 103.107 28.1876 104.292 30.9741 104.863C36.6088 105.983 42.4548 105.188 47.5888 102.604C49.6444 101.685 51.5004 100.371 53.0514 98.7352C54.6291 96.8199 55.8452 94.6319 56.6399 92.2787C58.0433 88.5868 59.1611 84.6927 60.1695 80.9418C61.7243 75.345 63.3294 69.5543 66.0523 64.3115C66.8927 62.7775 67.7331 61.2687 68.6239 59.8105C70.2919 57.1934 71.6994 54.4182 72.8259 51.5249C73.7924 48.777 73.8344 46.4675 72.9604 44.7817C72.6535 44.2196 72.2272 43.7319 71.7117 43.3532C71.1962 42.9745 70.6039 42.714 69.977 42.5902C69.5393 42.4864 69.0835 42.4864 68.6458 42.5903C68.2081 42.6942 67.8006 42.8991 67.4558 43.1887L67.0944 42.7757C67.4998 42.4277 67.9807 42.1795 68.4986 42.0507C69.0165 41.9219 69.5573 41.9162 70.0778 42.0339C70.7892 42.1812 71.4594 42.4842 72.0405 42.9213C72.6216 43.3584 73.0992 43.9189 73.4394 44.5626C74.389 46.4169 74.347 48.8276 73.3301 51.7272C72.1919 54.657 70.7616 57.464 69.0609 60.1055C68.2205 61.5637 67.2961 63.0641 66.5397 64.5813C63.8505 69.7735 62.2537 75.5389 60.7074 81.1019C59.6569 84.8781 58.5728 88.7807 57.1525 92.4894C56.34 94.9076 55.0924 97.156 53.4716 99.123C51.8696 100.811 49.954 102.168 47.8325 103.118C44.0973 104.942 40.0025 105.904 35.8484 105.934Z" fill="url(#paint0_linear_2194_1063)"/>
<path d="M42.0166 7.78688C42.4511 7.0951 42.7001 6.30245 42.7393 5.48578C42.7868 5.11901 42.7534 4.74626 42.6416 4.39382C42.5298 4.04138 42.3423 3.71783 42.0922 3.44598C41.8821 3.24369 41.6216 3.08354 41.4283 2.86439C41.235 2.64524 41.1426 2.41766 40.9829 2.20693C40.8098 1.98086 40.5871 1.79786 40.332 1.67214C40.0769 1.54643 39.7964 1.48137 39.5122 1.48205C38.9323 1.48205 38.3189 1.75177 37.8314 1.48205C37.5289 1.33032 37.3272 1.02688 36.991 0.858305C36.6746 0.696803 36.3117 0.652047 35.9657 0.731872C35.6635 0.837592 35.3444 0.886178 35.0245 0.875163C34.5707 0.807732 34.2597 0.403144 33.8563 0.175563C33.649 0.0692302 33.4209 0.00967881 33.1882 0.00108448C32.9555 -0.00750984 32.7237 0.035061 32.5091 0.125812C32.2945 0.216563 32.1023 0.353297 31.946 0.526426C31.7896 0.699556 31.6729 0.90489 31.6041 1.12803C31.5493 1.34088 31.5493 1.56421 31.6041 1.77706C31.6965 2.29122 32.0495 2.70424 32.0747 3.2184C32.0999 3.73257 31.789 4.1793 32.0747 4.63446C32.3604 5.08962 32.7806 5.10648 32.9823 5.53636C33.2513 6.11795 32.9823 6.87655 33.2261 7.50029C33.3521 7.89645 33.4193 8.46119 33.7891 8.71406C34.3018 9.06807 35.4195 8.77306 36.033 8.71406L38.4113 8.52019C39.4618 8.41905 40.756 8.52019 41.7057 7.9976C41.8203 7.9453 41.9254 7.87407 42.0166 7.78688Z" fill="#3B2645"/>
<path d="M33.9491 7.41594C33.8657 7.30101 33.7563 7.20749 33.63 7.14301C33.5037 7.07853 33.3639 7.04492 33.2222 7.04492C33.0804 7.04492 32.9407 7.07853 32.8144 7.14301C32.688 7.20749 32.5787 7.30101 32.4952 7.41594C31.7641 8.25884 32.9995 9.94462 33.9491 10.0458C34.0044 9.17003 34.0044 8.29168 33.9491 7.41594Z" fill="#E0855C"/>
<path d="M45.7569 21.5344C45.5354 22.9542 45.238 24.3611 44.8661 25.7489C44.8072 26.0102 44.7568 26.2631 44.7232 26.5075C44.6896 26.7519 44.656 26.9374 44.614 27.2492C44.614 27.3082 44.614 27.3757 44.614 27.4347C44.614 27.637 44.5551 27.8477 44.5299 28.0753L43.471 37.9793C36.8907 39.7915 30.0247 37.9793 30.0247 37.9793C30.0247 37.9793 30.0247 37.8528 30.0247 37.6084C29.9154 36.4873 29.5793 32.9219 29.2431 28.9013C29.2431 28.9013 29.2431 28.8423 29.2431 28.817C29.2465 28.7553 29.2465 28.6933 29.2431 28.6316C29.1002 26.9458 28.9658 25.1589 28.8565 23.4562C28.6548 20.4977 28.5288 17.7667 28.554 16.0725C28.554 15.4488 30.0079 15.5162 30.9995 15.3813C31.7307 15.2802 32.4786 15.2127 33.1257 15.179C33.7728 15.1453 34.2603 15.1285 34.588 15.1285H34.9578C34.9578 15.1285 35.0418 14.1591 35.0418 14.1507L35.2687 11.7737C35.3791 11.8023 35.4915 11.822 35.6049 11.8327C35.8129 11.8718 36.0237 11.8944 36.2352 11.9002C36.5125 11.9002 36.7731 11.9002 37.0168 11.9002L37.3781 11.858H37.5882C37.8236 11.8159 38.0505 11.7653 38.2606 11.7063C38.4707 11.6473 38.5379 11.622 38.6724 11.5799C39.2863 11.3826 39.8692 11.0988 40.4036 10.737L40.4792 10.6864L40.6221 10.5768L40.7229 10.501C40.7229 10.619 40.7229 10.6696 40.7229 10.7201C40.6557 11.2764 40.5801 11.9845 40.5464 12.6841C40.5464 13.1729 40.496 13.6534 40.4792 14.0664C40.4624 14.4794 40.3279 15.0779 40.6221 15.2886C40.727 15.3477 40.8404 15.3904 40.9582 15.415C41.4195 15.4881 41.8864 15.5191 42.3533 15.5078C42.4962 15.5078 42.639 15.5078 42.7819 15.5078C43.1402 15.4868 43.4993 15.4868 43.8576 15.5078C44.108 15.507 44.356 15.5566 44.5869 15.6536C44.8179 15.7506 45.0271 15.893 45.2022 16.0725C45.42 16.3887 45.5584 16.7531 45.6056 17.1345L45.7065 17.8257C45.8664 19.0558 45.8834 20.3004 45.7569 21.5344Z" fill="#FFEDE5"/>
<path d="M40.689 10.4419C40.5754 11.0451 40.3299 11.6156 39.9702 12.1123C39.6105 12.609 39.1455 13.0196 38.6088 13.3146C38.072 13.6095 37.4767 13.7816 36.8657 13.8183C36.2547 13.855 35.6433 13.7555 35.0752 13.5269L35.2349 11.7821C36.1866 11.9662 37.1667 11.9418 38.1081 11.7105C39.0496 11.4791 39.93 11.0464 40.689 10.4419Z" fill="#E0855C"/>
<path d="M34.1175 4.88761C33.6301 5.39335 33.5881 6.52282 33.5544 7.7703C33.4284 11.5633 34.5629 12.7434 36.4874 12.9541C38.4119 13.1648 40.4373 12.4146 40.8491 8.90821C41.0592 7.14656 41.2777 5.53664 40.639 4.76961C39.723 3.64013 35.5966 3.33669 34.1175 4.88761Z" fill="#FFEDE5"/>
<path d="M40.5633 8.39399C40.5633 8.39399 41.1516 6.82621 42.0844 7.66068C43.0173 8.49514 41.7315 10.8637 40.3028 10.6867C40.3196 10.6867 40.1263 8.93344 40.5633 8.39399Z" fill="#FFEDE5"/>
<path d="M41.6727 8.37699C41.4521 8.44611 41.2545 8.57435 41.1012 8.74786C40.9277 8.89327 40.7872 9.07435 40.6895 9.27888C40.6895 9.33788 40.7483 9.38003 40.7903 9.33788C40.9088 9.22025 41.021 9.09646 41.1265 8.96701C41.2031 9.05179 41.2979 9.11807 41.4038 9.16088C41.4878 9.16088 41.5551 9.08502 41.5214 9.01758C41.4632 8.92832 41.3857 8.85341 41.2945 8.79843C41.4514 8.69767 41.6003 8.58496 41.7399 8.46128C41.7426 8.45113 41.7428 8.44052 41.7406 8.43028C41.7384 8.42003 41.7339 8.41044 41.7274 8.40226C41.7208 8.39408 41.7125 8.38754 41.703 8.38315C41.6935 8.37876 41.6832 8.37665 41.6727 8.37699Z" fill="#E0855C"/>
<path d="M35.2099 7.6857C35.2099 7.6857 34.8821 7.80371 34.9325 7.22211C34.9829 6.64052 35.2099 6.77538 35.2099 6.77538C35.2099 6.77538 35.4368 6.77538 35.4031 7.23054C35.3695 7.6857 35.2099 7.6857 35.2099 7.6857Z" fill="#3B2645"/>
<path d="M38.5126 7.6857C38.5126 7.6857 38.1933 7.80371 38.2437 7.22211C38.2941 6.64052 38.5126 6.77538 38.5126 6.77538C38.5126 6.77538 38.7395 6.77538 38.7059 7.23054C38.6723 7.6857 38.5126 7.6857 38.5126 7.6857Z" fill="#3B2645"/>
<path d="M35.5626 5.92411C35.4306 5.84912 35.2783 5.81772 35.1275 5.83436C34.9767 5.85101 34.8349 5.91485 34.7222 6.01683C34.7165 6.02836 34.7138 6.04115 34.7144 6.054C34.715 6.06686 34.7189 6.07935 34.7256 6.09031C34.7323 6.10127 34.7417 6.11033 34.7529 6.11665C34.764 6.12296 34.7766 6.12632 34.7895 6.12641C34.9071 6.12641 35.008 6.05898 35.1256 6.05055C35.2489 6.04466 35.372 6.06476 35.487 6.10955C35.5962 6.14327 35.6719 5.97469 35.5626 5.92411Z" fill="#3B2645"/>
<path d="M39.0084 6.21095C38.8739 5.87379 38.294 5.8485 38.0419 6.0508C38.0297 6.06025 38.0198 6.07238 38.013 6.08626C38.0062 6.10014 38.0027 6.1154 38.0027 6.13087C38.0027 6.14634 38.0062 6.1616 38.013 6.17548C38.0198 6.18936 38.0297 6.2015 38.0419 6.21095C38.1929 6.22357 38.3447 6.22357 38.4957 6.21095C38.6179 6.23069 38.7368 6.26757 38.8487 6.32052C38.8632 6.34176 38.8855 6.35635 38.9107 6.3611C38.9359 6.36584 38.962 6.36034 38.9832 6.34581C39.0043 6.33128 39.0189 6.30891 39.0236 6.28361C39.0283 6.25832 39.0229 6.23218 39.0084 6.21095Z" fill="#3B2645"/>
<path d="M35.8735 10.3999C36.5825 10.4931 37.303 10.3697 37.9409 10.0459C37.8455 10.2708 37.7043 10.4732 37.5262 10.6402C37.3482 10.8071 37.1374 10.9349 36.9072 11.0152C36.1761 11.2175 35.8735 10.3999 35.8735 10.3999Z" fill="white"/>
<path d="M31.6296 16.0643C33.5625 17.4213 33.739 20.0596 32.7978 22.1668C32.1591 23.5745 30.9741 24.5606 30.2766 25.8924C29.5497 27.184 28.7057 28.4058 27.7554 29.5421C25.6712 32.1972 23.6879 34.5995 22.9231 35.5098C20.2927 38.6622 14.7629 42.8261 12.7711 44.2759C12.3173 44.613 12.0484 44.7985 12.0484 44.7985C12.0484 44.7985 10.1407 43.7954 10.6449 41.9411C10.6449 41.9411 18.2085 33.883 19.3262 32.2394C20.5614 30.103 21.6835 27.9028 22.6878 25.648C23.9764 23.1474 25.3182 20.6805 26.7133 18.2474C27.352 17.1263 28.1672 15.7187 29.5706 15.4658C30.137 15.402 30.7088 15.5232 31.201 15.8114C31.3497 15.8853 31.4929 15.9698 31.6296 16.0643Z" fill="#FFEDE5"/>
<path d="M10.6451 41.9495C10.8521 41.9335 11.06 41.9335 11.267 41.9495C11.267 41.9495 13.0822 42.9609 12.7713 44.2758C12.7713 44.2758 12.578 44.4529 12.2755 44.7226C11.9729 44.9923 11.6452 45.3126 11.2502 45.7172C10.8552 46.1218 9.95596 47.403 9.56938 47.2934C9.47928 47.26 9.40055 47.2015 9.34247 47.1248L8.5609 46.2819C8.12389 45.7931 7.39275 44.967 7.94741 44.318C7.54402 44.5624 6.60277 45.1609 6.14056 44.8743L5.94727 44.5624C5.94727 44.5624 7.33392 43.5257 7.90539 43.0115C8.67632 42.3632 9.63985 41.9897 10.6451 41.9495Z" fill="#FFEDE5"/>
<path d="M33.924 28.9775C33.9212 29.0225 33.9212 29.0676 33.924 29.1126C33.924 29.1126 33.9998 29.1126 33.983 29.1126L33.924 28.9775Z" fill="#D6BED3"/>
<path d="M37.0417 56.2955C36.2685 62.5076 35.3609 67.9105 35.3609 67.9105C35.4869 69.4109 35.5458 71.0376 35.5458 72.7066C35.5458 75.977 35.3273 79.4497 35.0499 82.5094C34.697 86.412 34.2095 89.733 33.9994 91.4019V91.6126C34.3104 102.68 31.1673 104.146 29.6966 101.727C28.2259 99.3082 29.6966 92.1774 29.6966 92.1774C29.7013 92.1128 29.7013 92.048 29.6966 91.9835C29.0779 88.6718 28.6653 85.3247 28.4612 81.9615C27.957 73.8192 28.8226 68.2477 28.7218 67.2362C26.9653 49.5355 29.4193 39.7748 29.4193 39.7748C29.8024 38.3565 30.4941 37.041 31.4446 35.9228C33.2347 33.9841 35.3861 34.473 36.7391 36.8415C36.8814 37.0844 37.0105 37.3348 37.1257 37.5917C37.677 38.9521 37.9898 40.3979 38.0502 41.8652C38.1846 45.5317 37.672 51.1875 37.0417 56.2955Z" fill="#FFEDE5"/>
<path d="M45.7233 81.5314C45.5278 84.9647 45.118 88.3823 44.4963 91.7641L44.4207 92.1771C44.4207 92.1771 45.8914 99.3333 44.4207 101.727C42.95 104.121 39.8405 102.722 40.1179 91.7641C40.1179 91.7135 40.1179 91.663 40.1179 91.6208C39.8825 90.0362 39.4119 86.6056 39.0421 82.5429C38.7564 79.4579 38.5379 76.002 38.5379 72.7316C38.5379 71.0458 38.6051 69.4275 38.7312 67.9187C38.7312 67.9187 37.7984 62.5157 37.0504 56.3121C36.4201 51.1957 35.8991 45.5399 36.1176 41.907C36.1804 40.4392 36.496 38.9934 37.0504 37.6336C37.1605 37.3688 37.2897 37.1124 37.437 36.8665C38.9917 34.1609 41.5801 33.9248 43.4878 36.9761C44.0343 37.8606 44.4637 38.8126 44.7652 39.8082C44.7652 39.8082 47.2192 49.5436 45.4628 67.2697C45.3367 68.2643 46.1687 73.6419 45.7233 81.5314Z" fill="#FFEDE5"/>
<path d="M10.4433 47.4199C10.6107 47.6143 10.8187 47.7694 11.0525 47.8743C11.2863 47.9791 11.5402 48.0312 11.7963 48.0268C11.9136 47.9994 12.0242 47.9484 12.1213 47.877C12.2184 47.8055 12.3001 47.7151 12.3613 47.6111C12.4226 47.5071 12.4622 47.3917 12.4778 47.2719C12.4933 47.1521 12.4845 47.0304 12.4518 46.9141C12.3541 46.6577 12.1954 46.4292 11.9896 46.2483C10.7206 44.9839 9.41797 43.7196 8.09855 42.548C7.87806 42.2987 7.58338 42.1273 7.25815 42.0591C6.95569 42.0589 6.66299 42.1665 6.43215 42.3625C6.20131 42.5585 6.04731 42.8303 5.99756 43.1296C5.99756 43.669 6.45978 43.8713 6.83796 44.1747C8.03132 45.2368 9.22468 46.3494 10.4433 47.4199Z" fill="#3B2645"/>
<path d="M10.2583 45.9276C10.3106 45.8735 10.3533 45.8108 10.3844 45.7422C10.4057 45.6551 10.4069 45.5643 10.388 45.4767C10.3691 45.389 10.3305 45.3069 10.2751 45.2365C9.96418 44.7223 9.32548 43.8963 8.69519 43.8204C8.48709 43.8098 8.27985 43.854 8.09408 43.9486C7.9083 44.0433 7.75047 44.185 7.63629 44.3598C7.44769 44.632 7.32775 44.946 7.28677 45.2748C7.24578 45.6037 7.28497 45.9376 7.40098 46.2479C7.58543 46.8062 7.96436 47.279 8.46828 47.5797C8.71974 47.6866 9.00265 47.6919 9.25791 47.5945C9.51317 47.4971 9.72105 47.3046 9.83813 47.0571C9.96419 46.7452 9.92217 46.3659 10.1239 46.1046C10.1621 46.0409 10.2072 45.9815 10.2583 45.9276Z" fill="#FFEDE5"/>
<path d="M42.4202 16.0645C40.4789 17.4216 40.3024 20.0598 41.2521 22.1671C41.8824 23.5747 43.0674 24.5609 43.7733 25.8926C44.5061 27.1805 45.3497 28.4018 46.2945 29.5424C48.3787 32.1975 50.3704 34.5997 51.1268 35.51C53.7656 38.6793 59.2954 42.8263 61.2872 44.2761L62.0183 44.7987C62.0183 44.7987 63.9176 43.7957 63.4134 41.9413C63.4134 41.9413 55.8498 33.8833 54.7321 32.2396C53.4935 30.1051 52.3713 27.9047 51.3705 25.6482C50.0763 23.1195 48.74 20.6836 47.3366 18.2476C46.6979 17.1266 45.8911 15.7189 44.4792 15.4661C43.9129 15.4028 43.3413 15.524 42.8489 15.8116C42.7 15.8852 42.5567 15.9697 42.4202 16.0645Z" fill="#FFEDE5"/>
<path d="M63.4053 41.9494C63.1955 41.9335 62.9848 41.9335 62.775 41.9494C62.775 41.9494 60.9597 42.9608 61.2707 44.2758C61.2707 44.2758 61.4724 44.4528 61.7665 44.7225C62.0607 44.9922 62.4052 45.3125 62.7918 45.7171C63.1784 46.1217 64.0944 47.4029 64.4726 47.2933C64.5615 47.2577 64.6396 47.1996 64.6995 47.1247L65.4727 46.2818C65.9181 45.793 66.6408 44.9669 66.0946 44.3179C66.4896 44.5623 67.4308 45.1608 67.9014 44.8742L68.0611 44.5623C68.0611 44.5623 66.6744 43.5256 66.0946 43.0114C65.3385 42.3713 64.3936 41.9981 63.4053 41.9494Z" fill="#FFEDE5"/>
<path d="M63.5983 47.4199C63.4309 47.6143 63.2229 47.7694 62.9891 47.8743C62.7553 47.9791 62.5014 48.0312 62.2453 48.0267C62.1265 48.0013 62.0141 47.9517 61.9151 47.8811C61.8161 47.8105 61.7325 47.7203 61.6695 47.6161C61.6065 47.5119 61.5655 47.3958 61.5489 47.2751C61.5323 47.1544 61.5405 47.0315 61.573 46.9141C61.6778 46.669 61.8391 46.4524 62.0436 46.282C63.3154 45.0176 64.6152 43.7842 65.943 42.5817C66.1623 42.3309 66.4575 42.1592 66.7834 42.0928C67.0849 42.0929 67.3765 42.2007 67.6059 42.3969C67.8354 42.593 67.9877 42.8647 68.0356 43.1632C68.0356 43.7027 67.5818 43.905 67.1952 44.2084C66.0102 45.2368 64.8169 46.3494 63.5983 47.4199Z" fill="#3B2645"/>
<path d="M63.7919 45.9276C63.7345 45.876 63.6887 45.8128 63.6574 45.7422C63.6397 45.6544 63.641 45.5637 63.6613 45.4765C63.6816 45.3892 63.7204 45.3073 63.7751 45.2365C64.0776 44.7223 64.7163 43.8963 65.3466 43.8204C65.5547 43.8098 65.762 43.854 65.9477 43.9486C66.1335 44.0433 66.2913 44.185 66.4055 44.3598C66.592 44.6333 66.7087 44.9484 66.7453 45.2776C66.7819 45.6068 66.7374 45.94 66.6156 46.2479C66.4367 46.8092 66.0564 47.2838 65.5483 47.5797C65.2969 47.6866 65.014 47.6919 64.7587 47.5945C64.5034 47.4971 64.2955 47.3046 64.1785 47.0571C64.0608 46.7452 64.1028 46.3659 63.8927 46.1046L63.7919 45.9276Z" fill="#FFEDE5"/>
<path d="M45.8494 76.1283V76.9712C45.8494 77.5359 45.8494 78.1175 45.8494 78.716V79.3987C45.8494 80.0899 45.799 80.8064 45.7654 81.5397C43.5894 82.1417 41.349 82.4785 39.0926 82.5427C39.0002 81.5987 38.8153 79.0868 38.8069 78.8087C38.8069 78.2355 38.6808 76.6172 38.6724 76.398C38.622 75.1674 38.5884 73.9368 38.5884 72.7314C38.5884 71.1637 38.6472 69.6296 38.7649 68.2051C38.7649 68.104 38.7649 68.0113 38.7649 67.9185C38.7649 67.8258 37.832 62.524 37.0841 56.3119C37 56.9694 36.916 57.6268 36.832 58.259C36.126 63.6029 35.3781 67.9185 35.3781 67.9185C35.5041 69.4189 35.563 71.0457 35.563 72.7146C35.563 73.9874 35.563 75.2433 35.4705 76.575C35.4705 76.7942 35.3024 79.6094 35.2772 79.8792C35.2184 80.7811 35.1428 81.6661 35.0671 82.5174C33.8906 82.4668 32.7308 82.391 31.5795 82.2898C30.6719 82.214 29.5289 82.1634 28.4196 82.0033C28.3692 81.2447 28.3356 80.5198 28.3103 79.8117C28.3103 79.6347 28.3103 79.4577 28.3103 79.2807C28.3103 78.5053 28.3103 77.7719 28.3103 77.0639V76.5076C28.3103 71.3997 28.8062 68.0365 28.7305 67.2358C26.9741 49.5351 29.4281 39.7744 29.4281 39.7744C29.8112 38.3561 30.5029 37.0405 31.4534 35.9224C32.1738 36.0342 32.8807 36.2207 33.5628 36.4787C34.6019 36.751 35.6744 36.873 36.7479 36.8411H37.5211C38.4539 36.8411 39.3868 36.7315 40.3112 36.7063H40.9331C41.8193 36.693 42.7043 36.7778 43.5719 36.9591C44.0906 37.8532 44.4917 38.8108 44.7653 39.8081C45.4442 42.9896 45.8435 46.2246 45.9587 49.4761C46.2433 55.4112 46.0776 61.3595 45.4628 67.2695C45.362 68.0197 45.8074 71.2311 45.8494 76.1283Z" fill="#3B2645"/>
<path d="M33.9491 91.6125C34.0668 95.9703 33.655 98.8361 33.0163 100.564C32.0414 103.236 30.4951 103.202 29.6547 101.761C29.4277 101.361 29.2714 100.925 29.1925 100.471C28.579 97.4622 29.6547 92.211 29.6547 92.211C29.6594 92.1464 29.6594 92.0816 29.6547 92.0171C30.0729 92.323 30.5469 92.5435 31.0498 92.6661C31.6141 92.8051 32.2081 92.7571 32.7429 92.5291C33.2777 92.3012 33.7244 91.9057 34.0164 91.4018L33.9491 91.6125Z" fill="url(#paint1_linear_2194_1063)"/>
<path d="M44.9248 100.235C44.853 100.771 44.682 101.288 44.4205 101.761C43.5129 103.244 41.9497 103.236 40.9833 100.362C40.395 98.676 40.0168 95.8692 40.1429 91.7559C40.7722 92.3231 41.5829 92.6459 42.4288 92.6662C43.1833 92.5965 43.9001 92.3031 44.4877 91.8233C44.5033 91.9549 44.5033 92.0879 44.4877 92.2195C44.4877 92.2195 45.4458 97.1925 44.9248 100.235Z" fill="url(#paint2_linear_2194_1063)"/>
<path d="M32.68 94.2002C32.2544 93.9456 31.768 93.8112 31.2724 93.8112C30.7768 93.8112 30.2904 93.9456 29.8647 94.2002C29.8489 94.2178 29.8384 94.2394 29.8342 94.2627C29.8301 94.2859 29.8325 94.3099 29.8413 94.3318C29.85 94.3538 29.8647 94.3728 29.8837 94.3868C29.9027 94.4008 29.9253 94.4091 29.9487 94.4109C30.3689 94.4109 30.7891 94.2339 31.1841 94.2424C31.6465 94.2817 32.103 94.3722 32.5456 94.5121C32.5834 94.5168 32.6218 94.5091 32.6549 94.4901C32.6881 94.4711 32.7142 94.4418 32.7293 94.4067C32.7445 94.3716 32.7478 94.3324 32.739 94.2952C32.7301 94.258 32.7094 94.2247 32.68 94.2002Z" fill="#291B30"/>
<path d="M32.5455 95.5487C31.8279 95.1292 30.9857 94.977 30.1672 95.1188C29.8899 95.1188 29.8815 95.5824 30.1672 95.5571C30.5626 95.5191 30.9614 95.5361 31.3522 95.6077C31.7135 95.6751 32.0413 95.8269 32.4027 95.9027C32.4471 95.9123 32.4936 95.9058 32.5337 95.8844C32.5739 95.8631 32.6053 95.8282 32.6224 95.7859C32.6394 95.7436 32.6411 95.6967 32.627 95.6533C32.613 95.6099 32.5841 95.5729 32.5455 95.5487Z" fill="#291B30"/>
<path d="M43.6725 94.2004C43.0338 93.9812 41.6471 93.8969 41.1513 94.487C41.084 94.5628 41.1513 94.723 41.2437 94.7146C41.6387 94.664 41.9833 94.5038 42.3951 94.487C42.8069 94.4701 43.2355 94.5797 43.622 94.5544C43.6452 94.5577 43.6688 94.5564 43.6915 94.5506C43.7142 94.5448 43.7355 94.5345 43.7542 94.5204C43.7729 94.5063 43.7887 94.4887 43.8006 94.4685C43.8126 94.4483 43.8204 94.4259 43.8237 94.4027C43.827 94.3794 43.8258 94.3558 43.8199 94.333C43.8141 94.3103 43.8039 94.2889 43.7899 94.2701C43.7758 94.2513 43.7582 94.2355 43.7381 94.2235C43.7179 94.2116 43.6956 94.2037 43.6725 94.2004Z" fill="#291B30"/>
<path d="M43.9836 95.6246C43.286 95.3127 41.5464 95.0851 41.1934 96.0292C41.143 96.1556 41.3027 96.2567 41.4035 96.1977C41.7667 95.9947 42.1713 95.8777 42.5865 95.8558C43.0017 95.8339 43.4163 95.9076 43.7987 96.0713C44.0508 96.1724 44.2441 95.7341 43.9836 95.6246Z" fill="#291B30"/>
<path d="M12.1661 15.0609C12.1661 15.0103 12.0652 15.0103 12.0568 15.0609C11.6366 17.9351 11.8803 20.9611 11.8803 23.9028C11.8803 27.0131 11.7795 30.1487 11.9644 33.2505C11.9723 33.2836 11.9912 33.3131 12.0178 33.3342C12.0445 33.3552 12.0775 33.3667 12.1115 33.3667C12.1454 33.3667 12.1784 33.3552 12.2051 33.3342C12.2317 33.3131 12.2506 33.2836 12.2585 33.2505C12.435 30.1487 12.3342 27.0131 12.3342 23.9028C12.3342 21.0286 12.5779 17.9604 12.1661 15.0609Z" fill="#F7F8F8"/>
<path d="M15.8387 16.0387C15.8298 15.9973 15.807 15.9602 15.7741 15.9337C15.7412 15.9071 15.7003 15.8926 15.658 15.8926C15.6158 15.8926 15.5749 15.9071 15.542 15.9337C15.5091 15.9602 15.4863 15.9973 15.4774 16.0387C15.4774 18.8034 15.3009 21.6187 15.4774 24.3749C15.4774 24.4219 15.496 24.4669 15.5291 24.5001C15.5622 24.5333 15.607 24.5519 15.6538 24.5519C15.7007 24.5519 15.7455 24.5333 15.7786 24.5001C15.8117 24.4669 15.8303 24.4219 15.8303 24.3749C16.0236 21.6187 15.8555 18.8034 15.8387 16.0387Z" fill="#F7F8F8"/>
<path d="M53.4126 44.9837C53.4058 44.9588 53.391 44.9368 53.3705 44.9211C53.35 44.9055 53.3249 44.897 53.2991 44.897C53.2734 44.897 53.2483 44.9055 53.2278 44.9211C53.2073 44.9368 53.1925 44.9588 53.1857 44.9837C52.9489 48.6032 52.9012 52.2326 53.0428 55.857C53.0428 59.4815 53.0428 63.0975 53.1773 66.7219C53.1844 66.7489 53.2002 66.7727 53.2223 66.7897C53.2443 66.8067 53.2713 66.816 53.2991 66.816C53.3269 66.816 53.354 66.8067 53.376 66.7897C53.3981 66.7727 53.4139 66.7489 53.421 66.7219C53.5387 63.0975 53.5386 59.4815 53.5555 55.857C53.6928 52.2325 53.6451 48.6033 53.4126 44.9837Z" fill="#F7F8F8"/>
<path d="M59.8924 23.785C59.8662 21.3732 59.7091 18.9646 59.4218 16.5699C59.4218 16.4266 59.1949 16.4687 59.1865 16.5699C59.1217 19.1598 59.1974 21.7513 59.4134 24.3329C59.5226 26.7352 59.4974 29.1964 59.8168 31.5733C59.8168 31.7925 60.1866 31.7251 60.195 31.5228C60.3126 28.952 60.0437 26.3306 59.8924 23.785Z" fill="#F7F8F8"/>
<path d="M61.573 25.1251C61.5671 25.1063 61.5554 25.0898 61.5395 25.0781C61.5236 25.0664 61.5044 25.0601 61.4847 25.0601C61.465 25.0601 61.4458 25.0664 61.43 25.0781C61.4141 25.0898 61.4023 25.1063 61.3965 25.1251C61.1738 28.5882 61.157 32.0614 61.3461 35.5264C61.3408 35.5475 61.3405 35.5696 61.345 35.5908C61.3495 35.6121 61.3588 35.6321 61.3722 35.6492C61.3856 35.6663 61.4026 35.6802 61.4221 35.6897C61.4416 35.6993 61.463 35.7042 61.4847 35.7042C61.5064 35.7042 61.5278 35.6993 61.5473 35.6897C61.5668 35.6802 61.5839 35.6663 61.5972 35.6492C61.6106 35.6321 61.6199 35.6121 61.6244 35.5908C61.629 35.5696 61.6286 35.5475 61.6234 35.5264C61.8125 32.0614 61.7956 28.5882 61.573 25.1251Z" fill="#F7F8F8"/>
<path d="M36.7896 58.2508C36.8024 57.5945 36.8869 56.9415 37.0417 56.3037C36.9576 56.9612 36.8736 57.6186 36.7896 58.2508Z" fill="#291B30"/>
<path d="M45.9331 49.4766C44.7986 42.6407 35.4281 42.3204 35.4281 42.3204C34.8483 39.5052 38.6301 38.6623 38.6301 38.6623L40.8403 36.7489C41.7265 36.7357 42.6115 36.8205 43.4791 37.0018C44.0266 37.8779 44.4588 38.8213 44.7649 39.8086C45.43 42.9917 45.8208 46.2263 45.9331 49.4766Z" fill="#291B30"/>
<path d="M44.8993 40.5416C37.3358 44.107 29.1167 40.8366 29.1167 40.8366C29.7134 39.1508 29.268 30.5533 29.2259 28.9181C29.2259 28.9181 29.2259 28.8591 29.2259 28.8338C29.2293 28.772 29.2293 28.7101 29.2259 28.6484C30.8143 24.9565 30.9908 17.8425 30.9992 15.3981C31.7135 15.2885 32.4615 15.2295 33.1086 15.1958C33.3607 17.9268 34.2599 24.9312 36.7643 24.6278C39.2687 24.3243 40.4621 18.0869 40.8991 15.356C41.3598 15.4335 41.8272 15.4645 42.2941 15.4487C42.437 15.4487 42.5799 15.4487 42.7227 15.4487C42.5042 19.1827 44.5716 27.03 44.6304 27.2492C44.6304 27.3082 44.6304 27.3756 44.6304 27.4346C44.6304 27.6369 44.5716 27.8476 44.5464 28.0752C44.5464 28.0752 44.5464 28.1679 44.5464 28.2185C44.0169 32.9724 44.8993 40.5416 44.8993 40.5416Z" fill="url(#paint3_linear_2194_1063)"/>
<defs>
<linearGradient id="paint0_linear_2194_1063" x1="74.1233" y1="105.934" x2="-24.4999" y2="97.2797" gradientUnits="userSpaceOnUse">
<stop stop-color="#92A3FD"/>
<stop offset="1" stop-color="#9DCEFF"/>
</linearGradient>
<linearGradient id="paint1_linear_2194_1063" x1="34.0164" y1="102.736" x2="27.303" y2="102.507" gradientUnits="userSpaceOnUse">
<stop stop-color="#92A3FD"/>
<stop offset="1" stop-color="#9DCEFF"/>
</linearGradient>
<linearGradient id="paint2_linear_2194_1063" x1="45.0799" y1="102.739" x2="38.4361" y2="102.507" gradientUnits="userSpaceOnUse">
<stop stop-color="#92A3FD"/>
<stop offset="1" stop-color="#9DCEFF"/>
</linearGradient>
<linearGradient id="paint3_linear_2194_1063" x1="44.8993" y1="42.2065" x2="23.7816" y2="41.2516" gradientUnits="userSpaceOnUse">
<stop stop-color="#92A3FD"/>
<stop offset="1" stop-color="#9DCEFF"/>
</linearGradient>
</defs>
</svg>
