<svg width="25" height="24" viewBox="0 0 25 24" fill="none" xmlns="http://www.w3.org/2000/svg">
<path d="M9.85425 5.4375H7.97925C7.48197 5.4375 7.00505 5.63504 6.65342 5.98667C6.30179 6.33831 6.10425 6.81522 6.10425 7.3125V18.5625C6.10425 19.0598 6.30179 19.5367 6.65342 19.8883C7.00505 20.24 7.48197 20.4375 7.97925 20.4375H17.3542C17.8515 20.4375 18.3284 20.24 18.6801 19.8883C19.0317 19.5367 19.2292 19.0598 19.2292 18.5625V7.3125C19.2292 6.81522 19.0317 6.33831 18.6801 5.98667C18.3284 5.63504 17.8515 5.4375 17.3542 5.4375H15.4792" stroke="#404040" stroke-width="1.5" stroke-linecap="round" stroke-linejoin="round"/>
<path d="M9.85425 5.4375C9.85425 4.94022 10.0518 4.46331 10.4034 4.11167C10.7551 3.76004 11.232 3.5625 11.7292 3.5625H13.6042C14.1015 3.5625 14.5784 3.76004 14.9301 4.11167C15.2817 4.46331 15.4792 4.94022 15.4792 5.4375C15.4792 5.93478 15.2817 6.41169 14.9301 6.76333C14.5784 7.11496 14.1015 7.3125 13.6042 7.3125H11.7292C11.232 7.3125 10.7551 7.11496 10.4034 6.76333C10.0518 6.41169 9.85425 5.93478 9.85425 5.4375Z" stroke="#404040" stroke-width="1.5" stroke-linecap="round" stroke-linejoin="round"/>
<path d="M10.7917 13.875H14.5417" stroke="#404040" stroke-width="1.5" stroke-linecap="round" stroke-linejoin="round"/>
<path d="M12.6667 12V15.75" stroke="#404040" stroke-width="1.5" stroke-linecap="round" stroke-linejoin="round"/>
</svg>
