<svg width="25" height="24" viewBox="0 0 25 24" fill="none" xmlns="http://www.w3.org/2000/svg">
<path d="M9.85449 5.4375H7.97949C7.48221 5.4375 7.0053 5.63504 6.65367 5.98667C6.30204 6.33831 6.10449 6.81522 6.10449 7.3125V18.5625C6.10449 19.0598 6.30204 19.5367 6.65367 19.8883C7.0053 20.24 7.48221 20.4375 7.97949 20.4375H17.3545C17.8518 20.4375 18.3287 20.24 18.6803 19.8883C19.0319 19.5367 19.2295 19.0598 19.2295 18.5625V7.3125C19.2295 6.81522 19.0319 6.33831 18.6803 5.98667C18.3287 5.63504 17.8518 5.4375 17.3545 5.4375H15.4795" fill="#54B6AB"/>
<path d="M9.85449 5.4375H7.97949C7.48221 5.4375 7.0053 5.63504 6.65367 5.98667C6.30204 6.33831 6.10449 6.81522 6.10449 7.3125V18.5625C6.10449 19.0598 6.30204 19.5367 6.65367 19.8883C7.0053 20.24 7.48221 20.4375 7.97949 20.4375H17.3545C17.8518 20.4375 18.3287 20.24 18.6803 19.8883C19.0319 19.5367 19.2295 19.0598 19.2295 18.5625V7.3125C19.2295 6.81522 19.0319 6.33831 18.6803 5.98667C18.3287 5.63504 17.8518 5.4375 17.3545 5.4375H15.4795" stroke="#54B6AB" stroke-width="1.5" stroke-linecap="round" stroke-linejoin="round"/>
<path d="M9.85449 5.4375C9.85449 4.94022 10.052 4.46331 10.4037 4.11167C10.7553 3.76004 11.2322 3.5625 11.7295 3.5625H13.6045C14.1018 3.5625 14.5787 3.76004 14.9303 4.11167C15.2819 4.46331 15.4795 4.94022 15.4795 5.4375C15.4795 5.93478 15.2819 6.41169 14.9303 6.76333C14.5787 7.11496 14.1018 7.3125 13.6045 7.3125H11.7295C11.2322 7.3125 10.7553 7.11496 10.4037 6.76333C10.052 6.41169 9.85449 5.93478 9.85449 5.4375Z" fill="#54B6AB" stroke="white" stroke-width="1.5" stroke-linecap="round" stroke-linejoin="round"/>
<path d="M10.792 13.875H14.542" stroke="white" stroke-width="1.5" stroke-linecap="round" stroke-linejoin="round"/>
<path d="M12.667 12V15.75" stroke="white" stroke-width="1.5" stroke-linecap="round" stroke-linejoin="round"/>
</svg>
