<svg width="28" height="28" viewBox="0 0 28 28" fill="none" xmlns="http://www.w3.org/2000/svg">
<path d="M10.7188 6.34375H8.53125C7.95109 6.34375 7.39469 6.57422 6.98445 6.98445C6.57422 7.39469 6.34375 7.95109 6.34375 8.53125V21.6562C6.34375 22.2364 6.57422 22.7928 6.98445 23.203C7.39469 23.6133 7.95109 23.8438 8.53125 23.8438H19.4688C20.0489 23.8438 20.6053 23.6133 21.0155 23.203C21.4258 22.7928 21.6562 22.2364 21.6562 21.6562V8.53125C21.6562 7.95109 21.4258 7.39469 21.0155 6.98445C20.6053 6.57422 20.0489 6.34375 19.4688 6.34375H17.2812" stroke="#000043" stroke-width="1.75" stroke-linecap="round" stroke-linejoin="round"/>
<path d="M10.7188 6.34375C10.7188 5.76359 10.9492 5.20719 11.3595 4.79695C11.7697 4.38672 12.3261 4.15625 12.9062 4.15625H15.0938C15.6739 4.15625 16.2303 4.38672 16.6405 4.79695C17.0508 5.20719 17.2812 5.76359 17.2812 6.34375C17.2812 6.92391 17.0508 7.48031 16.6405 7.89055C16.2303 8.30078 15.6739 8.53125 15.0938 8.53125H12.9062C12.3261 8.53125 11.7697 8.30078 11.3595 7.89055C10.9492 7.48031 10.7188 6.92391 10.7188 6.34375Z" stroke="#000043" stroke-width="1.75" stroke-linecap="round" stroke-linejoin="round"/>
<path d="M11.8125 16.1875H16.1875" stroke="#000043" stroke-width="1.75" stroke-linecap="round" stroke-linejoin="round"/>
<path d="M14 14V18.375" stroke="#000043" stroke-width="1.75" stroke-linecap="round" stroke-linejoin="round"/>
</svg>
