<svg width="25" height="25" viewBox="0 0 25 25" fill="none" xmlns="http://www.w3.org/2000/svg">
<path fill-rule="evenodd" clip-rule="evenodd" d="M12.5011 7.29168C13.9394 7.29168 15.1053 6.12575 15.1053 4.68751C15.1053 3.24927 13.9394 2.08334 12.5011 2.08334C11.0629 2.08334 9.89697 3.24927 9.89697 4.68751C9.89697 6.12575 11.0629 7.29168 12.5011 7.29168Z" stroke="#1FCCB7" stroke-width="1.5" stroke-linecap="round" stroke-linejoin="round"/>
<path fill-rule="evenodd" clip-rule="evenodd" d="M21.354 19.7917H16.9103L14.2821 16.4135C14.1398 16.2307 14.0624 16.0057 14.0623 15.774V12.5H22.3957C23.2586 12.5 23.9582 11.8004 23.9582 10.9375C23.9582 10.0746 23.2586 9.375 22.3957 9.375H2.604C1.74106 9.375 1.0415 10.0746 1.0415 10.9375C1.0415 11.8004 1.74106 12.5 2.604 12.5H10.9373V15.1042H8.854C6.84047 15.1042 5.20817 16.7365 5.20817 18.75V21.3542C5.20817 22.2171 5.90773 22.9167 6.77067 22.9167C7.63362 22.9167 8.33317 22.2171 8.33317 21.3542V18.75C8.33317 18.4624 8.56636 18.2292 8.854 18.2292H11.7363L14.9134 22.3135C15.2092 22.6938 15.6639 22.9164 16.1457 22.9167H21.354C22.217 22.9167 22.9165 22.2171 22.9165 21.3542C22.9165 20.4912 22.217 19.7917 21.354 19.7917Z" stroke="#1FCCB7" stroke-width="1.5" stroke-linecap="round" stroke-linejoin="round"/>
<path d="M10.9385 15.1042H14.0635" stroke="#1FCCB7" stroke-width="1.5" stroke-linecap="round" stroke-linejoin="round"/>
</svg>
