<svg width="25" height="25" viewBox="0 0 25 25" fill="none" xmlns="http://www.w3.org/2000/svg">
<path fill-rule="evenodd" clip-rule="evenodd" d="M12.5011 7.29171C13.9394 7.29171 15.1053 6.12578 15.1053 4.68754C15.1053 3.2493 13.9394 2.08337 12.5011 2.08337C11.0629 2.08337 9.89697 3.2493 9.89697 4.68754C9.89697 6.12578 11.0629 7.29171 12.5011 7.29171Z" stroke="#A8C4FF" stroke-width="1.5" stroke-linecap="round" stroke-linejoin="round"/>
<path fill-rule="evenodd" clip-rule="evenodd" d="M21.3542 19.7917H16.9105L14.2824 16.4135C14.14 16.2307 14.0627 16.0057 14.0626 15.774V12.5H22.3959C23.2589 12.5 23.9584 11.8004 23.9584 10.9375C23.9584 10.0746 23.2589 9.375 22.3959 9.375H2.60425C1.7413 9.375 1.04175 10.0746 1.04175 10.9375C1.04175 11.8004 1.7413 12.5 2.60425 12.5H10.9376V15.1042H8.85425C6.84071 15.1042 5.20842 16.7365 5.20842 18.75V21.3542C5.20842 22.2171 5.90797 22.9167 6.77092 22.9167C7.63386 22.9167 8.33342 22.2171 8.33342 21.3542V18.75C8.33342 18.4624 8.5666 18.2292 8.85425 18.2292H11.7365L14.9136 22.3135C15.2094 22.6938 15.6641 22.9164 16.1459 22.9167H21.3542C22.2172 22.9167 22.9167 22.2171 22.9167 21.3542C22.9167 20.4912 22.2172 19.7917 21.3542 19.7917Z" stroke="#A8C4FF" stroke-width="1.5" stroke-linecap="round" stroke-linejoin="round"/>
<path d="M10.9385 15.1041H14.0635" stroke="#A8C4FF" stroke-width="1.5" stroke-linecap="round" stroke-linejoin="round"/>
</svg>
